<?xml version="1.0" encoding="UTF-8" standalone="no" ?>
<!DOCTYPE svg PUBLIC "-//W3C//DTD SVG 1.1//EN" "http://www.w3.org/Graphics/SVG/1.1/DTD/svg11.dtd">
<svg xmlns="http://www.w3.org/2000/svg" xmlns:xlink="http://www.w3.org/1999/xlink" version="1.1" width="640" height="480" viewBox="0 0 640 480" xml:space="preserve">
<desc>Created with Fabric.js 3.6.6</desc>
<defs>
</defs>
<g transform="matrix(1 0 0 1 320.93 250.04)" id="ultrasecreto"  >
<path style="stroke: none; stroke-width: 1; stroke-dasharray: none; stroke-linecap: butt; stroke-dashoffset: 0; stroke-linejoin: miter; stroke-miterlimit: 4; fill: rgb(231,10,110); fill-rule: nonzero; opacity: 1;"  transform=" translate(-251.77, 34.21)" d="M -8.039 -67.922 v 0.164 l 0.656 1.313 l -0.164 1.8 v 0.328 l 0.328 0.492 q 0.574 0 1.313 -1.148 h 0.328 l 0.164 0.164 l -0.328 0.656 l 0.328 0.656 v 0.164 L -6.4 -63.5 q -1.8 0.492 -1.8 0.984 v 0.164 l 0.656 1.641 a 54.888 54.888 0 0 0 10.336 -0.656 l 0.164 0.656 l 3.117 -0.164 l 12.961 0.328 a 19.291 19.291 0 0 0 8.039 -1.312 h 0.164 l -0.328 0.984 v 0.164 l 0.984 -0.164 l 8.7 0.164 h 0.328 a 7.558 7.558 0 0 0 4.594 -1.477 L 40.7 -63.5 l 1.148 -0.328 a 2.336 2.336 0 0 0 1.8 0.82 l -0.164 0.82 v 1.148 l 0.328 0.328 H 44.3 a 5.439 5.439 0 0 0 2.133 -0.328 l 0.984 0.328 v -0.164 l 0.164 -0.164 v -0.656 q 0 -1.8 -0.656 -1.8 a 3.888 3.888 0 0 0 0.656 -2.461 l -0.328 -1.641 l -0.82 0.164 l -5.742 1.477 h -0.328 l 0.328 -0.984 q 0 -0.779 -17.062 -1.148 H 20.18 A 100.428 100.428 0 0 0 2.625 -66.773 l 0.656 -0.82 v -0.328 Z M 4.594 -65.789 L 7.219 -67.1 a 2.094 2.094 0 0 0 0.492 1.477 v 0.82 H 7.055 l -1.641 0.492 l -0.82 -1.148 Z m 13.289 0.656 l 0.328 -0.328 H 18.7 a 5.582 5.582 0 0 1 2.461 0.82 l -0.328 0.656 l 0.328 0.328 l 0.82 -0.164 v 0.656 l -0.82 0.164 h -0.82 v 0.328 h -0.492 Z m -16.406 0.656 l 1.477 -0.164 v 0.656 a 1.556 1.556 0 0 1 -1.477 0.82 l 0.164 -0.82 Z m 32.484 6.4 a 1.5 1.5 0 0 0 -1.477 0.82 v 0.164 h 1.8 q 1.271 0 1.477 0.656 l -0.492 0.656 v 0.164 q 0 1.477 2.461 1.8 l 1.148 -0.328 a 7.168 7.168 0 0 0 -0.82 -3.117 l -0.82 0.164 Z m -29.7 0.164 q -3.158 0 -3.609 4.1 v 0.328 l 0.656 -0.492 h 0.328 v 0.328 a 1 1 0 0 0 -0.984 0.656 q 0 0.328 0.984 0.328 v 0.164 q 0 0.205 -1.477 0.656 v 0.164 a 4.825 4.825 0 0 1 2.133 0.656 q 2.42 2.953 2.789 2.953 h 0.328 A 3.773 3.773 0 0 1 7.378 -49.22 v 0.328 Q 7.173 -46.923 5.9 -46.923 l -0.656 -0.164 a 2.793 2.793 0 0 1 -2.3 -3.117 H 1.477 a 1.16 1.16 0 0 0 -0.985 0.328 a 1.16 1.16 0 0 0 -0.328 0.985 A 4.39 4.39 0 0 1 1.313 -46.1 A 2.325 2.325 0 0 0 0.164 -43.969 v 2.133 q 0 0.492 2.133 0.492 H 3.609 a 12.489 12.489 0 0 0 3.445 -0.492 A 3.2 3.2 0 0 1 4.1 -40.523 H 3.938 a 9.048 9.048 0 0 1 -3.609 -0.82 l -0.164 0.164 L 0.328 -39.7 L 0.164 -28.383 q 0.369 5.414 0.984 5.414 L 2.461 -23.3 a 2.646 2.646 0 0 0 0.492 1.477 q 2.3 0.369 2.3 0.984 v 0.492 l -0.492 0.492 l -2.3 -0.492 q -0.656 0.082 -0.656 0.492 v 0.164 q 1.559 3.773 2.133 3.773 h 0.328 a 3.545 3.545 0 0 1 2.3 -0.984 h 0.492 l 6.07 0.82 l 0.984 -0.164 l 0.656 0.984 v 0.328 l -0.164 0.164 l -0.492 -0.328 q -4.1 -0.615 -4.1 -1.148 l -1.641 0.328 H 7.383 l -1.8 -0.328 l -0.984 0.82 Q 9.188 -9.844 17.883 -9.844 q 4.471 -0.164 5.25 -0.656 a 18.122 18.122 0 0 0 7.711 -1.312 q 8.7 -3.937 8.859 -20.672 v -5.578 q 0 -1.8 -1.312 -1.8 a 4.041 4.041 0 0 0 1.148 -3.281 a 17.6 17.6 0 0 0 -0.492 -3.937 h -0.984 v 0.164 l 0.492 0.656 v 0.164 h -1.8 l -0.328 -0.328 q 0.246 -0.533 2.625 -1.641 v -0.164 l -0.164 -0.164 l 0.82 -2.3 l -0.328 -0.492 h -0.164 l -0.164 0.164 q 0 0.492 -0.328 0.492 H 38.4 a 2.245 2.245 0 0 1 -0.984 -1.148 V -52 l 1.477 0.492 q 0.246 0 0.656 -1.312 q 0 -0.656 -2.461 -0.656 l -3.445 0.164 q -0.492 0 -0.492 0.328 v 0.164 q 0 0.246 1.313 0.984 l -0.492 0.492 L 31.5 -52.828 l 0.492 -0.164 l -0.82 -0.984 L 31.5 -54.3 q 0 0.82 0.328 0.82 h 0.492 q 0.656 0 1.641 -1.477 l -0.328 -0.328 H 32.156 q -2.133 0.287 -2.133 0.82 v 2.133 q 0 0.328 0.656 0.328 q 2.256 1.641 3.281 1.641 h 0.164 q 0.328 0 0.492 -0.984 h 0.164 q 0 0.533 0.984 1.313 l -3.937 1.148 l -1.641 -0.328 l -0.164 0.164 l -0.164 4.43 q 0 2.625 1.148 3.609 h -0.164 a 1.015 1.015 0 0 0 -0.855 0.289 a 1.015 1.015 0 0 0 -0.287 0.855 l 0.328 0.984 Q 31.5 -37.529 31.5 -36.75 v 0.164 l -0.164 0.164 l -1.148 -0.492 h -0.164 l -0.164 0.164 l 0.328 2.3 l -0.492 8.7 v 1.969 l 0.164 0.984 v 0.164 l -0.82 -0.328 q -0.328 0 -0.656 2.3 a 1.89 1.89 0 0 0 0.492 1.148 q -4.266 0.574 -4.266 1.477 v 0.164 a 20.815 20.815 0 0 1 4.59 0.972 v 0.164 q -1.271 0 -1.641 0.492 l -0.82 -0.492 a 6.069 6.069 0 0 0 -2.3 0.82 v -0.164 q 0 -0.287 1.148 -0.656 V -16.9 a 4.774 4.774 0 0 1 -1.8 -0.82 H 23.3 v 0.328 q 0.656 0.082 0.656 0.492 v 0.492 l -0.492 0.164 l -0.492 -0.164 v -0.164 l 0.164 -0.164 v -0.656 l -0.164 -0.164 l -1.641 0.164 q -7.875 0 -10.172 -3.773 l -1.312 -4.1 a 2.872 2.872 0 0 0 -1.477 0.82 H 8.2 v -0.328 q 0.2 -0.656 1.477 -0.656 v -5.414 a 5.439 5.439 0 0 0 -0.328 -2.133 q 0.328 0 0.328 -1.148 v -0.656 A 3.994 3.994 0 0 0 8.365 -37.4 q 1.641 0 1.641 -3.117 l -0.492 -4.594 L 9.68 -46.1 l -0.164 -0.164 a 5.88 5.88 0 0 0 -2.133 0.656 l -0.328 -0.328 q 0 -1.025 1.8 -1.969 l 0.984 0.164 a 9.1 9.1 0 0 0 0.492 -2.789 v -1.15 q -1.02 -6.234 -5.9 -6.234 Z m 27.891 0.984 a 1.8 1.8 0 0 0 -1.641 0.984 v 0.492 h 0.328 a 1.6 1.6 0 0 0 1.641 -0.82 v -0.164 Z M 31.66 -45.445 q 0 -1.148 1.969 -1.641 q 1.271 0 1.477 0.656 q -1.148 0 -1.148 0.656 v 0.164 l -0.984 -0.328 a 1.89 1.89 0 0 1 -1.148 0.492 Z m 4.43 1.477 a 1.761 1.761 0 0 1 1.641 -0.82 l 0.82 0.164 v 0.328 l -0.164 0.164 l -0.328 -0.328 a 2.116 2.116 0 0 1 -1.312 0.656 h -0.492 Z M 0.656 -36.422 H 0.984 a 2.277 2.277 0 0 1 2.3 1.477 l -0.164 0.984 H 2.3 A 3.4 3.4 0 0 1 0.656 -36.422 Z m 35.6 3.281 h 0.164 l 0.164 -0.164 h 1.641 l 0.164 0.164 a 0.89 0.89 0 0 1 -0.656 0.656 q -1.475 0 -1.475 -0.656 Z M 8.7 -32.32 h 0.328 v 0.164 H 8.7 Z M -7.547 -7.219 l -0.164 0.164 L -7.875 -0.492 v 0.164 L -7.547 0 h 33.8 q 1.887 -1.969 2.461 -1.969 q 0.82 0.2 0.82 0.492 L 27.4 -0.328 V 0 H 47.414 L 47.25 -1.641 l 0.328 -5.086 q 0 -0.492 -0.328 -0.492 H 32.813 l 0.328 1.313 l -0.656 0.82 v 0.328 h 0.656 l 1.477 0.492 v 0.492 L 34.945 -2.3 v 0.164 a 17.852 17.852 0 0 1 -5.906 -0.82 v -0.328 Q 31.5 -4.389 31.5 -5.414 v -0.164 H 29.367 v -0.328 q 1.8 -0.164 1.8 -1.148 H 31 l -0.164 -0.164 H 1.313 l -0.164 0.164 q 0 0.82 -0.328 0.82 L 0.656 -6.07 q 0 -1.148 -2.3 -1.148 l -5.086 0.164 Z M 0.328 -1.477 L 0.82 -1.641 l 1.641 0.492 q -0.082 0.328 -0.82 0.656 L 0.328 -1.148 Z M 36.053 -67.922 l -0.328 0.328 v 6.563 l 0.328 0.328 H 85.271 q 0.451 0 0.656 -2.3 L 85.763 -67.6 l -0.328 -0.328 Z m 26.414 3.773 l 1.313 -0.492 q 0 0.7 1.313 1.148 v 0.164 q -1.969 0 -1.969 0.82 h -0.492 l 0.164 -1.148 Z M 48.521 -57.586 l -1.477 0.328 Q 43.6 -55.371 43.6 -47.578 v 1.641 l 0.492 13.289 L 43.764 -20.18 q 0.41 7.875 0.984 7.875 q 1.025 2.3 6.07 2.3 h 1.148 l 9.516 -0.328 l 6.727 0.164 l 5.578 -0.328 q 3.609 0 3.609 -2.953 v -0.984 q -0.738 -3.445 -2.461 -3.445 a 1.89 1.89 0 0 1 -1.148 0.492 h -0.328 l -0.984 -0.984 l -4.266 0.328 l -14.6 -0.328 v -21.66 l -0.164 -0.164 q -0.82 0 -0.82 -0.328 l -0.164 -0.164 v -1.969 l -0.328 -0.984 h 0.492 l 0.164 0.164 q 0 0.492 0.328 0.492 h 0.328 l 0.164 -0.164 l 0.164 -7.547 a 15.5 15.5 0 0 0 -0.82 -5.086 q -0.779 -1.8 -3.445 -1.8 Z M 85.436 -7.219 H 35.889 l -0.164 0.164 q 0.164 2.133 0.656 2.461 a 2.316 2.316 0 0 0 -0.656 1.641 V -0.328 L 36.053 0 H 85.436 l 0.328 -0.328 V -6.891 Z m 9.023 -60.867 H 72.639 l -0.164 0.164 l 0.164 3.938 l -0.164 3.117 l 0.164 0.164 l 0.164 -0.164 l 7.711 0.164 l 2.625 -0.164 V -61.2 q -0.984 -0.328 -0.984 -0.656 v -0.492 q 2.461 0.533 3.117 1.641 l 1.148 -0.164 h 20.016 l 20.016 0.164 v -0.164 l 0.164 -0.164 v -6.891 L 125.3 -67.6 l -4.594 -0.492 h -0.82 a 3.318 3.318 0 0 0 -1.641 0.492 l 0.492 1.313 v 0.328 q -0.943 0 -1.969 -1.969 l -11.648 -0.164 a 6.354 6.354 0 0 0 -3.281 0.82 a 2.442 2.442 0 0 0 -1.969 -0.82 H 98.725 q -3.609 0.533 -3.609 1.313 h -0.164 Q 94.787 -68.086 94.459 -68.086 Z M 82.482 -66.773 l 1.477 0.328 v 0.164 L 83.3 -65.3 h -0.328 q -0.369 0 -0.492 -0.984 Z M 74.936 -64.8 l 1.477 -0.328 v 1.148 H 75.264 l -0.328 -0.328 Z m 36.258 1.477 l 1.8 -1.312 l 0.328 0.82 a 2.258 2.258 0 0 1 -1.8 0.82 Z m 4.1 0.82 l 2.133 -0.656 v 1.148 h -0.656 l -1.8 -0.328 q -0.492 0 -0.492 0.984 h -0.328 l -0.164 -0.164 l 0.328 -1.148 l 0.82 0.164 Z m -23.46 1.3 q 0.861 -1.148 1.477 -1.148 l 0.656 0.328 q 0 0.82 -1.477 0.82 Z m 16.242 3.281 l -5.086 0.164 h -2.133 l -1.969 0.164 v -0.164 H 98.4 q 0 1.436 -1.641 1.641 l -0.328 -0.82 L 93.15 -55.293 h -0.164 l 0.164 -0.492 q 0 -0.41 -1.312 -1.312 l 0.328 -0.492 v -0.164 L 92 -57.586 l -6.4 -0.164 a 15.81 15.81 0 0 0 -4.43 0.656 q -1.312 0.861 -1.312 3.281 v 0.656 q 0.041 0.82 0.328 0.82 q 0 2.01 5.742 2.3 h 2.133 q 5.66 0 6.727 0.82 l -0.164 16.734 a 44.683 44.683 0 0 0 0.82 7.055 a 10.193 10.193 0 0 0 -0.82 3.445 A 4.289 4.289 0 0 0 96.1 -18.7 h -0.656 q -0.984 0 -0.984 1.313 v 0.984 q 0 4.717 4.922 6.07 h 0.656 a 4.589 4.589 0 0 0 3.117 -1.8 l -0.328 -0.328 h -0.82 l -2.133 0.82 H 99.71 l 0.656 -0.82 q 0 -0.369 -0.82 -0.492 v -0.164 h 0.492 l 3.609 0.328 q 0.82 0 0.82 -2.461 a 3.78 3.78 0 0 0 -0.656 -1.8 q 0.492 0 0.492 -0.328 v -1.969 l -0.164 -0.164 l -1.477 0.328 a 1.051 1.051 0 0 1 -0.984 -0.656 V -20 h 0.164 l 0.164 0.164 h 0.164 L 104.3 -20.5 v -29.2 l 0.164 0.164 l 3.445 -0.492 q 1.518 0 1.8 -2.3 a 11.05 11.05 0 0 0 3.938 1.313 v 0.164 q -1.271 0 -1.477 0.656 v 0.164 l 0.328 0.328 h 1.148 q 3.281 -0.082 3.281 -0.82 V -50.7 h -0.984 l -1.148 0.164 V -50.7 h -0.328 v -0.328 l 0.82 -0.164 l 2.461 0.656 a 4.951 4.951 0 0 0 1.969 -3.445 v -0.492 q 0.005 -3.441 -11.644 -3.441 Z m -6.234 3.281 q 0 -1.641 3.445 -2.625 q -1.477 3.938 -3.117 3.938 h -0.492 v -0.164 l 0.492 -0.164 Z m -4.922 0.164 q 0 -0.287 0.82 -0.492 l 1.8 0.492 q 0 0.82 -1.477 0.82 H 97.74 l 0.164 -0.82 Z m 16.242 1.641 a 2.8 2.8 0 0 1 1.969 -1.148 l 0.492 0.164 q -1.189 1.313 -1.8 1.313 Z M 89.7 -51.023 q 0.738 -1.8 2.133 -1.8 q 0.738 0.328 0.82 0.656 v 0.328 H 91.67 a 3.213 3.213 0 0 1 -1.8 0.82 Z m 8.7 1.313 q 1.148 0 1.148 0.984 l -0.328 0.82 l 0.164 0.164 q 2.789 0.41 2.789 1.148 l -0.328 0.328 a 4.526 4.526 0 0 0 -3.281 -1.148 l 0.328 -0.492 L 98.4 -49.547 Z m -0.328 4.266 h 0.164 l 2.789 1.313 q -0.082 0.328 -0.82 0.656 L 98.4 -43.8 l 0.164 -0.82 v -0.328 q 0 -0.328 -0.492 -0.328 Z m 0.164 3.773 l 2.3 0.82 v 0.164 l -1.641 0.328 h -0.164 v -0.164 h 0.328 v -0.328 q 0 -0.492 -0.984 -0.492 v -0.164 Z m 0.656 2.461 h 0.492 l 2.786 1.31 v 0.656 l -0.164 0.164 l -1.312 -0.328 l -0.328 0.328 a 2.277 2.277 0 0 1 -1.477 -1.969 Z M 97.58 -27.89 h 0.82 q 0.943 1.313 1.313 1.313 l -0.492 0.492 a 3.978 3.978 0 0 1 -1.969 -0.656 Z m 2.625 3.445 l 1.641 0.164 l -0.328 0.656 l -1.641 -0.164 Z M 96.6 -21.656 l 0.492 -0.492 h 2.789 v 0.492 q -1.969 0 -1.969 0.82 a 1.547 1.547 0 0 0 -1.316 -0.82 Z M 90.2 -7.383 l -17.227 0.164 q -0.492 0 -0.492 0.328 v 1.313 a 4.8 4.8 0 0 0 0.984 2.953 q -0.984 0 -0.984 0.492 v 1.8 L 72.8 0 h 1.477 q 8.982 0 14.6 -0.328 L 93.311 0 q 0.369 -1.641 0.656 -1.641 h 0.328 v 0.164 l -0.328 0.492 v 0.656 L 94.295 0 h 1.969 Q 97.9 0 97.9 -1.148 a 4.938 4.938 0 0 0 2.3 0.984 a 1.287 1.287 0 0 0 1.313 -0.984 l 0.492 0.492 l -0.328 0.492 V 0 h 24.609 l 0.328 -0.328 v -0.984 a 1.479 1.479 0 0 0 -0.984 -1.477 l 0.82 -0.82 l -0.164 -1.641 l 0.164 -1.641 q -9.352 -0.492 -17.883 -0.492 a 55.013 55.013 0 0 0 -11.32 0.82 a 46.086 46.086 0 0 0 -7.054 -0.82 Z m 4.266 0.82 q 2.625 0.984 2.625 1.477 v 0.164 H 96.92 l -1.312 -0.492 l -0.492 0.492 Q 94.664 -5 94.459 -6.234 Z M 88.881 -4.43 q 0 -0.615 1.641 -1.148 h 0.164 A 3.6 3.6 0 0 1 89.537 -4.1 h -0.164 Z m -9.516 0.492 h 0.164 l 0.164 1.148 v 0.328 H 79.2 q -0.656 -0.82 -1.148 -0.82 v -0.164 h 0.164 l 0.656 0.164 q 0.493 0 0.493 -0.655 Z M 89.7 -1.8 l 0.492 -0.492 h 0.328 q 1.8 0 1.8 0.492 v 0.164 q 0 0.287 -0.82 0.492 Q 89.7 -1.436 89.7 -1.8 Z m 25.84 -66.445 l -0.328 1.641 h -0.328 l -0.164 -0.164 q -0.164 -1.312 -0.492 -1.312 h -0.492 l -0.164 0.164 A 8.3 8.3 0 0 0 113.9 -65.3 l 1.8 -0.492 l 0.656 0.656 v 0.164 l -1.641 0.328 l -0.984 -0.164 v 3.773 l 10.828 0.164 q 2.42 -0.164 2.789 -1.312 q 0.328 0 0.984 1.313 l 1.477 -0.164 l 24.609 0.164 a 89.035 89.035 0 0 0 10.5 -0.82 l 0.492 0.82 l 3.117 -0.164 q 0.82 0 0.82 -1.8 v -1.148 q -1.107 -4.43 -3.773 -4.43 h -1.148 a 6.043 6.043 0 0 0 -2.625 0.984 q 0 -0.615 -2.625 -0.82 l -11.648 0.164 q -1.518 1.969 -2.133 1.969 l 0.492 -1.969 h -8.7 Z m 35.273 4.43 q 0.205 -0.984 0.492 -0.984 q 0.9 1.148 1.641 1.148 v 0.328 l -0.164 0.164 a 3.978 3.978 0 0 1 -1.968 -0.661 Z m -4.1 0.492 l 1.8 0.656 l 1.313 -0.164 l 0.328 0.984 l -0.328 0.328 h -0.164 q 0 -0.984 -0.328 -0.984 l -1.8 0.328 h -0.82 Z M 135.064 -58.57 a 45.217 45.217 0 0 0 -6.4 0.328 q -5.209 0 -5.906 5.906 v 0.984 a 4.512 4.512 0 0 0 0.82 2.3 a 2.519 2.519 0 0 0 -0.82 1.969 q 0.246 2.625 0.656 2.625 q 1.148 -0.574 1.148 -0.82 q 0 -0.7 -1.148 -1.641 v -0.492 a 2.894 2.894 0 0 0 1.641 -0.492 h 0.164 q 0 1.641 1.477 1.641 l -1.8 1.313 v 0.164 l 0.328 0.492 l 0.492 -0.328 h 0.164 l 0.328 1.148 v 0.164 l -3.117 -0.656 l -0.328 0.82 l 0.328 10.336 l -0.164 1.148 q 1.477 0.205 1.477 0.492 q -1.477 0.369 -1.477 0.656 v 5.086 l 0.328 2.3 q -0.328 0 -0.492 1.641 l 0.328 0.984 l 0.656 -0.164 q 1.477 0.369 1.477 0.82 v 0.492 l -0.492 0.164 l -1.477 -0.492 l -0.328 0.328 L 122.76 -16.9 q 0.164 1.148 0.492 1.148 a 3.817 3.817 0 0 1 2.133 -1.477 l 0.492 0.164 v 0.164 l -2.953 1.477 q 0 3.076 1.969 4.1 l 1.313 -0.984 h 0.164 v 0.492 q -1.148 0.2 -1.148 0.656 t 1.313 0.656 l 1.148 -0.328 a 6.255 6.255 0 0 1 3.773 -1.641 a 2.573 2.573 0 0 1 0.984 -2.133 q 0 -0.451 -1.477 -0.492 l -1.641 -1.8 h -0.164 q 0 0.533 -0.82 0.82 v -0.164 l -0.164 -0.164 a 6.568 6.568 0 0 1 2.625 -1.148 l -0.164 -0.656 q 0.492 -1.477 1.148 -1.477 l 0.656 0.164 h 0.164 v -0.82 l -0.328 -8.039 l 0.328 -2.133 q 0 -0.984 2.789 -0.984 a 11.337 11.337 0 0 1 4.922 1.477 q 4.881 3.281 5.578 3.281 v 0.492 h -0.164 l -0.984 -0.164 h -0.164 l -0.164 0.164 v 0.328 q 4.266 5.742 4.266 6.234 l 2.133 -0.656 h 0.492 q -1.641 0.82 -1.641 1.969 v 0.328 a 2.834 2.834 0 0 0 2.3 2.953 l -0.164 0.656 q 0 0.984 2.133 2.133 l -0.328 0.492 q 0 0.246 1.313 0.82 l 1.148 -1.477 h 0.82 l 0.328 1.148 l 1.8 -0.82 q 2.789 -0.41 2.789 -1.641 v -0.164 a 5.856 5.856 0 0 0 -1.641 -3.281 v -0.164 h 0.492 v -0.492 l -0.328 -0.492 q -2.3 -0.369 -2.3 -0.82 l 0.984 -0.984 v -0.492 l -0.164 -0.492 q -1.682 -4.43 -9.023 -10.992 q 0.328 -1.312 0.656 -1.312 h 0.328 l 0.492 0.656 q 1.518 0 2.953 -3.445 l 1.148 1.477 h 0.164 q 0.287 0 0.492 -0.82 a 11.26 11.26 0 0 0 4.758 -9.68 V -46.43 q 0 -5.045 -5.414 -9.023 Q 152.209 -58.57 135.064 -58.57 Z m 13.781 4.43 l 2.133 0.82 a 0.89 0.89 0 0 1 -0.656 0.656 a 3.746 3.746 0 0 0 -1.8 -0.82 v -0.164 Z m 1.641 2.953 q 3.24 -0.656 3.938 -1.312 l 0.984 2.625 a 5.946 5.946 0 0 0 -2.133 0.82 q 0 -1.354 -2.789 -1.969 Z m -18.047 0.656 q 5.578 -0.615 5.578 -1.477 h 0.164 v 0.656 q 9.639 1.025 11.648 2.3 q 0 1.559 1.969 2.461 q -0.984 1.8 -1.477 6.727 v 0.164 l -0.82 -0.164 h -0.164 l -2.133 0.984 v 0.492 h 1.313 q -0.082 0.328 -0.82 0.656 l -2.625 -0.656 l -0.328 0.328 v 0.164 l 0.492 0.492 h 0.164 l -0.164 0.492 v 0.164 h 1.8 l 0.492 0.492 v 0.164 l -1.477 -0.328 h -0.492 l -0.328 0.328 v 0.328 q 0.082 0.328 0.82 0.656 a 3.009 3.009 0 0 0 1.641 -0.82 v 0.492 q 0 1.148 1.641 1.148 a 1.425 1.425 0 0 1 -1.312 0.82 l -2.461 -0.164 q -0.246 -1.969 -1.148 -1.969 q -0.492 0 -0.492 0.328 v 1.641 h -0.656 v 0.492 l 0.328 0.328 l 0.82 -0.656 h 0.328 q -0.123 0.984 -1.312 0.984 h -0.492 q -0.656 0 -0.82 -2.953 v -0.328 h 0.164 l 0.164 0.164 h 0.492 a 2.273 2.273 0 0 0 1.8 -1.148 a 4.412 4.412 0 0 0 -3.445 -1.312 l -8.531 0.164 h -0.16 a 12.325 12.325 0 0 0 -0.984 -3.609 q 0 -0.287 0.82 -0.492 l -0.328 -0.984 l 0.164 -1.8 q 0 -0.656 -0.492 -0.656 a 11.76 11.76 0 0 0 0.82 -4.266 Z m 14.766 -0.328 l 0.492 -0.492 h 0.656 q 1.23 0 1.313 0.492 l -0.492 0.164 Z m -20.18 2.953 q 0.7 -1.969 2.133 -1.969 h 0.328 a 4.59 4.59 0 0 0 -1.477 3.117 q -0.614 -0.164 -0.984 -1.148 Z m -1.148 5.742 q 0 -0.615 2.625 -1.312 h 0.328 a 1.8 1.8 0 0 0 0.656 1.148 l -3.281 0.164 h -0.164 l -0.164 0.164 Z m 30.352 2.625 a 4.579 4.579 0 0 1 2.953 -1.477 h 0.164 v 0.164 l -0.164 0.164 q -2.3 0.574 -2.3 1.477 v 0.164 l 0.164 0.164 h -0.164 Z m -31.008 0.164 q 0.2 -0.779 0.656 -0.82 l 1.313 0.164 l -1.477 1.477 q -0.287 0 -0.492 -0.821 Z m 2.625 10.664 h 1.313 v 0.656 l 0.328 0.984 h -0.164 l -0.164 0.164 a 3.88 3.88 0 0 1 -1.312 -1.641 Z m -4.43 5.414 l 0.328 -0.328 h 0.164 q 0.328 0.082 0.656 0.82 l -0.328 0.328 Z m 3.609 7.383 h 0.164 a 1.384 1.384 0 0 1 0.82 1.148 q 0 0.82 -0.492 0.984 l -0.328 -0.82 l -1.641 0.492 h -0.164 v -0.656 q 1.641 0 1.641 -1.148 Z m 1.969 2.133 a 1.127 1.127 0 0 1 1.148 -0.656 h 0.328 l 0.328 0.328 v 0.82 h -0.164 Z m 28.711 5.906 l -21 0.984 l -1.8 -0.164 v 0.328 l 1.969 1.148 l -0.328 0.328 h -0.492 l -0.984 -0.984 q -0.943 1.8 -2.133 1.8 v 0.164 l 0.656 1.148 L 132.6 -0.656 v 0.164 l 11.977 0.328 h 6.234 L 162.3 -0.492 V -0.82 h -0.328 V -0.984 l 1.313 -0.328 h 0.164 l -0.328 0.82 l 0.328 0.328 h 0.328 a 4.482 4.482 0 0 0 2.133 -1.148 h 0.328 q 0 1.148 1.641 1.148 h 0.82 l 0.328 -0.328 V -5.25 l -0.328 -0.328 a 1.89 1.89 0 0 0 -1.148 0.492 h -0.164 l -0.328 -0.328 v -0.164 l 0.164 -0.164 q 1.8 -0.451 1.8 -0.82 v -0.656 l -0.328 -0.328 h -0.656 a 2.687 2.687 0 0 1 -1.641 0.984 h -0.164 v -0.164 l 0.164 -0.164 v -0.164 q 0 -0.7 -5.906 -0.82 Z m -28.055 0.328 a 29.569 29.569 0 0 0 -7.383 1.313 V -6.4 q 0 -0.369 1.641 -0.656 v -0.328 H 113.9 l -0.328 0.328 v 0.492 l 0.328 5.086 l -0.164 0.984 V -0.33 l 0.164 0.164 l 0.656 -0.164 l 5.906 0.164 Q 122.1 -0.41 122.1 -1.148 h 0.164 A 5 5 0 0 0 125.385 0 a 10.821 10.821 0 0 0 4.758 -1.477 v 0.492 a 2.519 2.519 0 0 0 1.969 -0.82 v -0.164 l -0.164 -0.164 l -0.82 0.164 l 0.164 -1.312 v -0.328 l -1.97 -0.491 l 2.625 -3.117 l -0.328 -0.328 Z M 115.541 -5.414 q 0 -0.738 1.148 -0.984 q 1.8 0.164 1.8 0.492 l -2.789 0.492 Z m 10.664 1.148 q 0 -0.287 0.82 -0.328 h 0.164 L 126.7 -3.117 q 0.164 0.82 0.82 0.82 v 0.328 l -1.148 0.164 h -0.164 v -0.82 q 0 -0.492 -1.148 -0.492 q 0 -0.287 1.148 -0.656 h 0.164 Z m 9.516 0.984 l 1.969 -0.164 q 0.82 0 0.984 0.492 A 4.409 4.409 0 0 1 136.213 -1.8 h -0.164 Z M 158.279 -68.25 l -0.328 0.328 v 7.055 l 0.164 0.164 l 28.711 -0.328 l 28.219 0.328 l 0.328 -1.148 q 0 -5 -1.8 -6.4 Z M 213.24 -64.8 l 1.313 0.164 l -0.164 0.492 L 214.553 -63 v 0.164 h -0.328 a 2.71 2.71 0 0 0 -1.641 -0.82 h -0.328 l -0.164 0.164 v -0.164 Q 213.24 -64.4 213.24 -64.8 Z m -26.578 6.563 l -1.8 0.164 q -6.234 2.584 -6.234 8.2 v 0.164 q 2.461 0.369 2.461 0.82 h -2.625 q -2.3 3.65 -8.2 20.18 q -5.578 11.689 -5.578 13.945 v 0.656 q 1.436 4.266 5.086 4.266 h 0.492 q 2.092 0 3.609 -2.953 q 2.174 -8.121 3.773 -9.023 h 5.086 l 12.469 0.164 l 0.82 -0.164 l 0.492 2.133 q 3.24 9.68 7.055 9.68 a 5.751 5.751 0 0 0 4.594 -2.625 q 0 -0.615 -1.641 -1.8 v -0.492 h 0.164 l 0.984 0.984 l 0.492 -0.328 a 11.035 11.035 0 0 0 -1.477 -5.086 q -0.123 -1.969 -0.656 -1.969 h -0.164 L 204.545 -21 v -0.164 q 1.148 -1.025 1.148 -1.477 q -4.1 -9.187 -9.516 -24.281 q -3.117 -11.32 -9.352 -11.32 Z M 186.17 -47.9 h 0.164 q 0.492 1.969 1.477 1.969 l -0.164 0.82 v 0.492 q 0 1.271 1.641 2.133 v 1.8 l 0.328 1.969 q 3.609 8.982 3.609 9.68 H 179.607 l 0.164 -0.82 q 3.445 -8.08 3.445 -10.172 v -1.477 l -0.164 -0.164 q 1.641 -0.615 1.641 -1.641 v -0.164 l -0.164 -0.164 l -0.984 0.82 l 0.328 -0.984 q 1.272 0 2.3 -4.1 Z m -5.086 21.164 a 2 2 0 0 1 1.8 -1.312 h 0.328 a 2.432 2.432 0 0 0 -0.984 1.8 a 1.89 1.89 0 0 1 -1.144 -0.493 Z m -22.8 19.2 l -0.328 0.328 v 5.25 A 3.049 3.049 0 0 0 158.443 0 l 1.8 -0.328 l 9.844 0.164 a 7.638 7.638 0 0 0 3.609 -0.82 a 9.333 9.333 0 0 0 3.117 0.82 h 1.477 l 2.461 -0.328 V -0.656 q 0 -0.328 -0.492 -0.328 v -0.492 l 0.656 0.328 l 1.8 -0.492 h 0.164 q 0.287 0 0.492 0.82 l -0.164 0.164 l -1.148 -0.492 l -0.328 0.328 v 0.328 l 0.164 0.164 l 23.8 0.328 q 9.516 0 9.516 -0.656 V -7.219 l -0.328 -0.328 Z m 63.328 -60.539 q -15.75 0.2 -15.75 0.984 v 6.07 l 0.328 0.328 H 209.8 a 8.349 8.349 0 0 0 3.609 -0.656 a 15.672 15.672 0 0 0 4.43 0.82 l 12.633 -0.164 h 0.164 q 0.615 -1.969 1.641 -1.969 l -0.82 -0.82 v -0.164 l 0.164 -0.164 l 0.328 0.328 a 7.075 7.075 0 0 1 2.625 0.492 l -0.492 1.477 v 0.164 q 0 0.656 4.594 0.656 h 0.82 q 4.266 0 4.266 -0.656 v -0.164 l -0.492 -1.641 v -0.164 l 0.82 0.164 h 0.164 l 2.133 -0.656 v 0.164 l -1.148 0.984 v 0.164 l 0.164 0.164 l 0.984 -0.328 h 0.164 l -0.164 0.492 q 0 0.41 1.148 1.477 h 5.742 q 0.492 -0.123 0.492 -0.984 V -64.3 l -0.328 -0.328 l -1.969 0.656 H 251.3 l -0.328 -0.328 v -0.328 h 1.148 q 0.82 0 0.984 -0.492 l -2.3 -1.641 h 1.477 a 1.372 1.372 0 0 0 1.313 -0.82 v -0.164 l -0.164 -0.164 Z m 1.641 1.477 q 0 -0.287 0.82 -0.492 l 2.461 0.328 h 0.492 v 0.328 a 5.574 5.574 0 0 1 -2.953 0.984 H 223.9 l 0.164 -0.492 v -0.164 l -0.82 0.164 Z m 16.57 2.133 q 0 -0.246 0.656 -0.492 a 2.749 2.749 0 0 1 1.477 1.148 v 0.328 H 241.3 l -1.477 -0.656 Z m -3.937 0.656 l 0.984 -0.984 h 0.984 l 0.164 0.164 a 1.59 1.59 0 0 1 -1.477 1.148 h -0.656 Z m -14.766 -0.164 l 0.492 -0.492 h 0.328 q 0.82 0 0.984 0.492 v 0.492 l -0.164 0.164 l -0.984 -0.492 h -0.328 l -0.164 0.164 v -0.164 Z m 16.242 1.641 l 0.656 -0.656 h 1.148 l 1.313 0.328 a 1.08 1.08 0 0 1 -1.148 0.82 l -1.969 -0.328 Z m -9.352 4.1 a 22.751 22.751 0 0 0 -5.906 0.984 q -9.844 3.979 -9.844 11.484 v 1.148 a 10.418 10.418 0 0 0 1.477 5.742 l 0.984 -0.328 h 0.164 v 0.328 h -0.492 v 0.328 a 13.064 13.064 0 0 0 2.953 3.281 q 2.666 1.969 8.7 2.789 l 4.922 2.133 q 8.367 1.4 8.367 6.727 l -0.164 1.313 q -1.189 5.414 -9.516 5.414 a 8.44 8.44 0 0 1 -7.219 -3.445 q -3.445 -7.711 -5.742 -7.711 h -1.148 q -3.076 0 -4.266 4.266 q 0.287 1.8 0.82 1.8 a 15.994 15.994 0 0 0 1.148 4.266 q 5.045 7.875 16.242 7.875 a 22.949 22.949 0 0 0 8.039 -1.477 v -0.164 l -0.164 -0.164 v -1.477 q 0 -1.8 -1.477 -1.8 v -0.164 l 3.281 -0.328 h 0.656 q 2.461 0.2 2.461 0.82 q -2.3 0 -2.3 2.133 v 0.164 l 0.164 0.164 a 2.617 2.617 0 0 0 1.477 -0.656 q 0 -0.328 -0.492 -0.328 v -0.328 h 0.328 l 0.984 -0.164 q 5.578 -3.24 5.578 -8.531 l -0.328 -1.969 q 0.82 0 0.82 -0.492 v -0.5 l -0.656 -0.656 l 0.328 -1.8 l -0.164 -1.312 q -1.641 -5.25 -4.1 -5.25 h -0.984 v -0.164 l 0.328 -0.492 v -0.492 q -9.926 -4.758 -15.422 -4.758 h -0.164 v 0.164 l 2.3 2.461 v 0.164 h -0.82 q -2.789 -0.164 -2.789 -0.82 l 0.656 -0.328 l -0.328 -1.969 q 0 -1.107 -3.937 -1.477 l -2.789 0.164 H 219.8 v -0.656 l -0.164 -0.82 a 2.85 2.85 0 0 0 1.8 -0.984 v -0.492 q 0 -0.246 -1.148 -0.82 a 14.114 14.114 0 0 1 2.953 -4.266 l -0.164 -0.984 a 3.269 3.269 0 0 1 1.477 -1.8 l -0.328 -0.492 v -1.148 l 0.164 -0.164 q 0.451 0 1.313 0.82 h 0.164 a 1.838 1.838 0 0 1 1.477 -1.8 l 0.656 0.164 v 0.328 q -2.584 1.559 -2.625 2.3 l 0.328 0.328 h 0.328 a 2 2 0 0 0 1.313 -0.656 h 0.328 v 0.328 l -0.164 0.164 q -0.492 0 -0.492 0.328 q 0.123 0.492 0.984 0.492 h 0.984 a 1.082 1.082 0 0 0 1.148 -0.656 l 0.984 0.82 q 5.742 1.8 5.742 3.773 l 1.969 -0.328 a 3.545 3.545 0 0 1 2.3 0.984 h 0.164 l -0.164 -0.82 q 0 -0.492 0.328 -0.492 l 0.656 0.492 h 0.164 l 1.477 -0.164 q 0.984 0.328 0.984 0.656 h -0.656 l -0.984 -0.164 h -0.164 l 0.164 1.641 q 0 0.656 -0.984 0.656 h -0.164 l -0.656 -1.312 h -0.164 q -0.246 0 -1.641 2.789 v 0.164 l 0.164 0.164 l 1.641 -0.164 l -0.328 0.984 v 0.164 h 0.984 q 3.9 0 4.43 -4.594 q -0.82 -5.414 -3.281 -5.414 q -0.328 0 -0.328 0.82 L 240.8 -49.875 a 1.89 1.89 0 0 0 -1.148 -0.492 H 238.5 a 3.318 3.318 0 0 0 -1.641 0.492 l -0.164 -0.492 q -1.969 -0.533 -1.969 -1.969 l -0.82 0.164 l -1.477 -0.328 v -0.164 l 6.891 -0.328 l 4.266 0.328 v -0.328 l -0.82 -1.148 q -4.389 -3.281 -6.727 -3.281 h -0.164 l -0.164 0.164 l 0.328 0.82 h -0.164 a 20.575 20.575 0 0 0 -7.873 -1.805 Z m 2.3 1.313 l 0.328 -0.328 h 0.164 l 1.641 0.492 v 0.328 l -0.492 0.164 L 230.3 -56.6 Z m 2.3 1.148 v -0.164 q 2.953 0.451 2.953 0.984 l -0.82 0.164 H 233.1 l -0.492 0.328 l 0.164 0.82 v 0.164 H 232.6 l -0.164 -0.164 h -0.164 l -0.984 0.328 v -0.328 a 3.741 3.741 0 0 0 1.312 -2.141 Z m -13.289 0.82 a 3.776 3.776 0 0 1 2.625 0.82 l -2.133 0.984 h -0.328 v -0.164 l 0.656 -0.164 V -53.8 q -0.451 -0.82 -0.984 -0.82 V -54.8 Z m 9.352 0.328 l 0.492 -0.164 l 1.313 0.164 A 1.754 1.754 0 0 1 229 -53.64 h -0.656 V -53.8 l 0.656 -0.164 l -0.328 -0.492 Z M 220.295 -40.2 q 0.123 -0.492 1.313 -0.492 h 0.164 a 8.273 8.273 0 0 1 3.445 1.477 a 5.675 5.675 0 0 1 -3.773 1.477 A 4.766 4.766 0 0 1 218 -38.883 l 0.492 -0.492 l 4.266 0.656 l 0.328 -0.328 v -0.492 l -0.328 -0.492 a 5.439 5.439 0 0 0 -2.133 0.328 v -0.164 H 220.3 Z m 10.828 3.773 l 0.164 -0.656 q 0 -0.533 2.133 -0.82 l 0.656 0.164 v 0.328 l -0.492 0.492 h -1.477 q -0.41 0 -0.492 0.656 h -0.328 Z m -2.133 0.492 h 0.164 l 0.164 -0.164 h 0.328 l 1.969 0.328 v 0.164 q 0 0.492 -1.312 0.656 a 1.287 1.287 0 0 1 -1.313 -0.979 Z m 9.352 0 h 1.148 v 0.164 l -0.164 0.164 v 0.164 l 0.164 0.164 q 0.82 0.041 0.82 0.328 l 0.164 0.164 v 0.656 h -3.117 v -0.984 l 1.148 -0.328 V -35.6 l -0.164 -0.164 Z m -11.32 1.477 v -0.164 q 2.625 0.738 2.625 1.148 v 0.492 h -2.461 L 226.2 -33.3 Z m 8.039 1.969 a 3.126 3.126 0 0 1 1.641 -1.148 l -0.164 0.82 v 0.656 h -0.492 Z m 5.906 -0.82 l 0.328 -0.328 a 2.154 2.154 0 0 0 1.477 0.82 v 0.164 l -0.492 0.492 H 241.3 v -0.82 Z m -3.117 0.328 l 0.328 -0.328 l 1.641 0.164 a 1.479 1.479 0 0 1 -0.984 1.477 q -0.411 0 -0.985 -1.309 Z M 206.186 -7.547 l -0.328 0.328 v 0.492 a 30.725 30.725 0 0 0 0.328 4.922 l -0.164 1.477 H 209.3 q 1.313 -0.246 1.313 -0.656 A 9.641 9.641 0 0 0 214.389 0 l 8.531 -0.328 h 30.352 l 0.328 -0.328 V -7.383 l -0.164 -0.164 l -7.055 0.164 Z M 237.85 -4.758 q 0 -0.328 0.984 -0.656 h 0.328 v 0.164 q -0.656 0 -0.656 0.328 v 0.164 l 0.164 0.164 l 0.984 -0.492 h 0.328 q -0.615 1.148 -1.148 1.148 h -0.328 q 0 -0.615 -0.656 -0.656 Z m 7.014 -63.492 l -0.328 0.328 v 2.3 l 0.164 1.477 L 244.535 -63 v 1.641 q 0 0.246 0.656 0.492 l 3.773 -0.164 l 1.313 0.328 l 0.328 -0.328 v -0.328 q -1.312 -0.164 -1.312 -0.492 h 2.133 l 0.328 -0.328 q 0 -0.533 -2.625 -1.148 q 0 -0.328 1.148 -0.492 q 1.969 0.328 1.969 1.477 l -0.82 1.148 v 0.164 h 3.281 l 0.164 -0.164 a 12.543 12.543 0 0 0 -1.8 -2.953 l -4.266 -0.984 h -0.164 q -0.492 1.477 -0.82 1.477 q 0 -0.984 -0.492 -0.984 h -1.8 a 2.954 2.954 0 0 0 0.656 -1.477 h 0.328 l 1.148 0.82 l 0.492 -0.328 L 247 -66.445 v -0.164 l 0.164 -0.164 l 1.8 0.328 h 0.164 q 0.287 0 0.656 -0.984 a 5.042 5.042 0 0 1 1.8 0.984 Q 254.42 -63 256.02 -63 h 0.164 l 0.328 -0.328 l -1.148 -1.148 v -0.164 l 3.773 -0.328 h 0.164 l -0.328 0.328 L 259.3 -63 l 0.984 -0.164 h 0.164 a 2.116 2.116 0 0 0 -0.656 1.313 v 0.328 l 0.328 0.492 l 0.164 -0.164 l 3.938 0.492 h 0.656 q 0.2 -1.477 0.492 -1.477 h 0.164 l 0.492 0.328 l 1.313 -0.328 v 0.164 l 0.164 0.164 q 0 0.246 -0.656 0.492 l 0.328 0.328 h 1.477 l 0.328 -0.328 V -63 l 1.148 0.328 h 0.492 a 4.73 4.73 0 0 1 2.133 -1.148 h 0.82 v -0.492 l -0.656 -0.82 V -65.3 l 1.148 -0.164 h 0.164 a 1.686 1.686 0 0 1 1.641 1.148 q -2.5 0 -6.07 3.117 v 0.164 h 0.164 l 0.164 -0.164 h 1.641 l 10.992 0.328 h 0.164 a 19.637 19.637 0 0 0 6.727 -0.984 a 3.831 3.831 0 0 0 2.953 1.148 h 1.641 l 0.328 -0.328 v -5.25 a 3.049 3.049 0 0 0 -0.492 -1.969 l -3.281 0.164 h -0.984 l -14.93 -0.328 h -0.492 a 26.092 26.092 0 0 0 -8.859 1.313 q 0 -0.9 -1.8 -1.312 h -0.82 l -0.984 0.328 l -4.1 2.133 q -1.271 -1.641 -1.641 -1.641 l -0.328 0.82 h -0.492 l 0.328 -0.656 l -1.312 -0.82 H 253.4 L 252.082 -67.1 q 0 -0.984 -3.445 -1.312 l -3.117 0.164 Z m 8.039 0.82 l 0.492 -0.164 l 1.8 0.82 q 0 1.148 0.984 1.148 v 0.164 a 1.8 1.8 0 0 0 -1.148 0.656 H 254.7 v -0.164 q -1.8 -1.68 -1.8 -2.46 Z m 9.68 0.492 l 0.82 -0.492 h 0.328 l 0.984 0.984 l -1.477 0.656 l -0.656 -0.984 Z m -0.656 0.82 l 1.148 0.328 v 0.164 l -0.492 0.164 q 0 0.328 0.492 0.328 v 0.328 h -0.656 a 1.478 1.478 0 0 1 -0.82 -0.82 Z m 26.742 1.8 q 0 -1.477 1.8 -1.8 q 0.287 0 0.492 0.82 q -0.041 0.41 -2.133 0.984 Z m -24.937 -0.164 a 1.69 1.69 0 0 1 1.477 -0.984 h 0.328 a 3.97 3.97 0 0 0 -0.82 1.8 h -0.164 q 0 -0.656 -0.82 -0.656 Z m -5.742 1.8 a 1.89 1.89 0 0 0 -1.148 0.492 l 1.313 0.82 h 0.328 l 0.328 -0.328 v -0.492 l -0.492 -0.492 Z m 21.984 4.922 a 35.359 35.359 0 0 0 -5.414 0.492 v 0.328 l 0.82 0.492 l -0.328 0.328 h -0.492 a 1.758 1.758 0 0 1 -1.641 -1.312 h -0.328 q 0 0.656 -0.984 0.656 a 9.536 9.536 0 0 0 -2.789 -0.82 a 6.793 6.793 0 0 0 -3.281 0.82 a 24.866 24.866 0 0 0 -5.742 -0.82 H 257.66 q -4.184 0 -5.578 3.281 q 0.082 0.656 0.492 0.656 h 1.477 l 0.164 -0.164 q 0.984 0.574 0.984 0.984 l -0.656 0.328 l -1.8 -0.656 h -0.656 l -0.328 0.328 l 1.477 1.148 v 0.492 q -1.559 0.82 -1.641 1.313 l 0.164 9.188 v 4.1 l -0.164 1.969 l 1.148 0.492 h 0.164 q 2.994 -3.609 4.1 -3.609 V -37.9 l -0.82 -0.82 v -0.164 q 0.984 0 0.984 -0.328 a 1.214 1.214 0 0 0 -0.984 -0.656 v -0.164 h 0.164 q 1.969 0.7 1.969 2.3 v 0.492 a 2.617 2.617 0 0 1 -0.656 1.477 l -1.8 -0.656 l -0.984 0.164 q -0.943 3.117 -1.641 3.117 H 252.9 l -1.148 -0.164 v 0.164 l -0.164 0.164 v 0.984 l 0.492 2.461 l -0.328 1.8 v 0.164 l 2.3 0.328 a 19.168 19.168 0 0 0 4.43 -0.984 v -0.164 l -0.328 -0.328 a 1.963 1.963 0 0 1 0.82 -1.477 h 0.492 l 1.148 0.984 l 0.656 -0.656 v -1.477 l 0.328 -0.328 h 3.117 l 9.68 -0.328 l 3.445 0.328 v -0.164 l -0.164 -0.984 q 0 -1.23 2.133 -1.641 h 0.328 q -1.477 1.436 -1.477 2.3 v 0.164 l 0.328 0.328 h 1.8 q 4.266 0 4.266 -3.281 v -0.164 a 2.936 2.936 0 0 0 -0.656 -1.8 q -2.01 -2.3 -7.055 -2.3 a 27.712 27.712 0 0 0 -7.711 1.313 v 0.328 a 7.272 7.272 0 0 1 2.461 0.492 v 0.164 h -0.328 q -0.533 1.313 -0.82 1.313 h -0.328 l -0.164 -0.164 v -0.164 l 0.164 -0.164 v -0.328 l -1.8 -1.312 l 0.164 -0.492 v -0.164 l -1.477 0.328 a 19.469 19.469 0 0 0 -4.758 -0.984 h -0.984 l -0.164 0.164 q -0.9 2.625 -1.969 2.625 h -0.164 a 12.321 12.321 0 0 0 1.641 -4.43 a 6.637 6.637 0 0 0 -0.984 -3.281 q 1.313 0 1.313 -1.477 l -0.328 -3.937 q 0 -1.148 2.789 -1.148 l 7.547 0.492 h 0.328 a 6.747 6.747 0 0 0 3.609 -0.984 h 0.164 a 0.58 0.58 0 0 1 -0.164 0.492 a 0.58 0.58 0 0 1 -0.492 0.164 v 0.328 l 6.563 0.164 q 4.594 0 5.25 -2.953 v -0.164 q -1.559 0 -1.969 -2.625 v -0.328 h 0.328 l 0.82 0.492 l 0.328 -0.328 v -0.164 q -0.862 -1.6 -6.235 -1.809 Z m -26.086 1.8 a 2.572 2.572 0 0 1 2.133 -0.82 l 2.953 0.656 v 0.164 l -0.82 0.164 l -4.1 -0.164 Z m 17.719 -0.328 l 2.133 0.656 v 0.164 l -0.328 0.328 l -2.133 -0.492 V -55.8 Z m -5.086 2.461 l 0.82 -0.164 h 0.984 q 0.492 0 0.492 0.82 h 0.328 V -53.5 h 0.164 v 0.164 a 2.484 2.484 0 0 1 -1.969 0.984 q -0.164 -1.312 -0.82 -1.312 Z M 254.871 -50.7 l 0.984 0.164 h 0.164 l 0.164 -0.164 l 0.164 1.477 q -1.477 -0.41 -1.477 -0.82 Z m 2.3 16.242 q 0.943 0 3.609 -1.8 l 0.82 0.492 q 0 0.328 -1.312 0.492 a 1.127 1.127 0 0 0 0.656 1.148 h 1.313 v 0.328 q -0.082 0.328 -0.82 0.656 l -1.8 -0.164 h -0.164 l -0.164 0.164 l 0.328 0.82 v 0.164 L 258 -32.486 v 0.164 l -0.164 0.164 v 0.82 l -1.148 -0.492 l 0.164 -2.461 v -0.164 Z m 14.109 -0.656 l 0.492 -0.164 L 273.9 -34.13 h 0.164 q 0 1.107 -1.641 1.477 h -0.164 v -0.164 l 0.328 -1.477 q -0.2 -0.656 -1.312 -0.656 Z m -11.812 0.492 a 2.573 2.573 0 0 0 -2.133 0.984 v 0.328 h 1.313 q 0.82 0 0.984 -0.492 v -0.656 Z m 0.656 6.4 q -1.189 1.477 -4.594 1.477 h -1.641 a 5.439 5.439 0 0 1 -2.133 -0.328 v 0.164 l -0.164 0.164 v 0.82 l 0.82 0.82 a 12.91 12.91 0 0 0 -0.82 4.43 v 2.133 a 26.8 26.8 0 0 0 0.656 5.086 q 0 2.789 8.039 2.789 h 2.953 a 27.629 27.629 0 0 0 6.727 -0.82 a 57.782 57.782 0 0 0 9.352 0.984 h 2.3 q 6.234 0 6.234 -4.594 l -0.164 -0.82 q -1.6 -2.789 -8.2 -2.789 h -4.922 l -0.492 0.656 v 0.164 l -2.625 -0.328 h -0.656 q -1.271 0 -1.477 0.656 a 18.246 18.246 0 0 0 -6.562 -0.82 a 2.48 2.48 0 0 1 -2.461 -1.969 q 0.984 -0.7 0.984 -4.266 v -3.281 l -0.328 -0.328 Z m -5.578 8.367 q 0 -2.789 2.625 -2.789 q -0.656 2.789 -2.461 2.789 Z m 5.578 4.1 l 0.492 -0.164 l 1.313 0.328 q -1.477 2.461 -1.969 2.461 l -0.164 -0.164 l 0.656 -0.82 V -15.1 l -0.328 -0.492 Z m 18.211 2.461 l 0.82 -0.164 h 0.656 V -12.3 l 0.328 0.492 v 0.164 h -0.492 a 4.624 4.624 0 0 1 -1.315 -1.645 Z m 14.109 5.578 a 14.481 14.481 0 0 0 -5.086 1.641 h -0.164 q 0 -0.328 0.984 -0.492 v -0.656 l -12.141 -0.328 a 74.611 74.611 0 0 0 -9.023 0.656 v 0.328 h 0.492 v 0.328 l -0.492 0.164 A 2.333 2.333 0 0 0 265.7 -6.4 v -0.164 l 0.328 -0.492 v -0.328 l -0.164 -0.164 l -1.477 0.164 l -2.133 -0.164 q -2.789 0 -3.937 1.148 h -0.164 L 256.84 -7.547 h -0.328 q 0 1.477 -3.117 1.477 h -0.328 q -0.246 0 -0.656 -1.148 h 0.164 l -0.328 -0.328 h -7.383 l -0.328 0.328 v 4.594 q 0 0.246 1.148 0.656 a 18.834 18.834 0 0 1 4.43 -0.984 h 0.492 a 4.784 4.784 0 0 1 3.773 1.477 a 22.525 22.525 0 0 0 -4.43 -0.656 h -0.82 A 10.852 10.852 0 0 0 244.7 -0.984 v 0.328 l 8.039 0.492 l 20.836 -0.164 h 0.164 A 3.224 3.224 0 0 1 276.363 -1.8 h 0.164 v 0.328 q -1.8 0.41 -1.8 0.82 v 0.164 l 0.164 0.164 h 0.164 l 0.164 -0.164 h 1.313 l 2.625 0.328 h 0.328 a 1.08 1.08 0 0 0 1.148 -0.82 l -0.328 -0.656 V -1.8 q 0.738 -0.123 1.969 -2.461 q 1.066 0.41 1.148 0.82 v 0.164 l -0.984 0.164 v 0.328 l 0.82 0.164 h 5.25 l 1.641 -0.164 q 0 1.312 1.477 1.313 V -0.98 l -0.492 0.164 q -0.82 0 -1.969 -1.477 H 289 l -0.164 0.164 l -0.492 0.656 h -0.492 l -0.984 -0.82 q -0.328 0 -0.328 0.82 h -1.312 l -0.656 0.492 q 0 0.861 9.844 0.984 l 0.328 -0.492 v -0.5 l -0.492 -4.1 L 294.58 -6.4 a 2.51 2.51 0 0 0 -2.139 -1.315 Z m -36.422 1.8 l 1.477 -0.328 h 0.164 l 0.164 0.164 l -0.82 0.656 l 0.492 1.477 v 0.164 q -1.8 -1.107 -1.8 -2.133 Z m 16.406 2.133 q 0 -0.41 0.984 -0.492 q 0.2 -0.984 0.492 -0.984 h 0.328 q 1.641 0.123 1.641 0.984 V -4.1 H 274.23 l -1.8 0.492 Z M 259.3 -1.969 q 0 -0.574 1.8 -0.82 h 0.328 l 0.492 0.492 v 0.328 Z m 3.117 0.328 A 0.879 0.879 0 0 1 263.4 -2.3 h 1.313 v 0.164 q -0.123 0.492 -0.984 0.492 Z m 16.406 0.492 l 0.492 -0.164 h 0.328 l -0.492 0.492 Z m 8 -67.266 q -3.281 0.369 -3.281 0.984 l 0.328 0.328 h 0.164 q 0 -0.492 0.328 -0.492 h 1.148 l -0.328 0.492 v 0.164 l 0.656 0.82 l -1.312 -0.328 l -0.328 0.328 q 0 0.656 -0.492 0.656 L 283.541 -63 q 0 1.8 5.742 1.8 h 1.477 a 3.891 3.891 0 0 0 3.117 -1.148 l -0.328 -0.328 h -0.328 l -3.117 0.492 l -0.82 -1.969 a 0.89 0.89 0 0 1 0.656 -0.656 a 6.771 6.771 0 0 0 3.445 1.148 l 1.969 -0.492 v -0.328 h -1.8 l -0.328 -0.328 v -0.328 l 1.148 0.164 h 0.984 l 0.164 -0.164 l 1.477 1.8 V -63 l -1.148 -0.82 h -0.164 l -0.164 0.164 l 0.164 0.492 l -0.328 1.313 q 0.328 0.984 0.656 0.984 h 33.3 a 3.943 3.943 0 0 1 2.461 -1.641 h 0.164 l -0.164 0.492 l 0.492 0.492 l -0.328 0.492 v 0.164 h 8.531 l 0.328 -0.328 v -6.727 l -0.164 -0.164 l -2.625 0.164 l -4.594 -0.164 h -2.461 L 322.1 -68.25 l -4.43 0.164 q -0.328 0 -0.328 0.82 l -1.477 2.3 h -0.984 a 2.617 2.617 0 0 0 -1.477 0.656 h -0.328 l 0.328 -0.656 l -0.328 -0.656 v -0.328 h 0.164 l 0.164 0.164 h 1.477 q 0.861 -0.41 0.984 -0.984 v -0.164 L 315.7 -67.1 l -1.969 0.492 h -0.164 l -0.492 -0.656 q 2.625 -0.2 2.625 -0.656 v -0.164 l -8.531 -0.164 H 303.56 a 29.37 29.37 0 0 0 -8.7 0.984 q 0 -0.492 -1.477 -0.82 h -1.148 l -1.312 0.492 q 0 -0.328 -1.148 -0.492 h -0.164 l -0.164 0.164 l 0.328 0.984 v 0.164 h -0.82 a 7.645 7.645 0 0 1 -2.133 -1.642 Z M 296.01 -67.1 h 1.148 v 1.8 q -1.148 0 -1.148 -1.641 Z m 13.945 0.328 h 1.8 q 0 1.148 0.82 1.148 q 0 0.615 -2.133 0.82 q -0.282 0 -0.487 -1.969 Z M 299.947 -64.8 q 0 -0.574 1.8 -0.82 h 0.164 v 0.492 l -0.328 0.492 l -0.656 -0.164 l -0.82 0.164 Z m 21.492 -0.82 h 0.984 l -0.328 1.148 q 0 0.492 0.984 0.492 q 0 0.451 -1.641 0.656 a 1.127 1.127 0 0 1 -1.148 -0.656 v -0.328 l 0.492 0.328 h 0.164 l 0.492 -0.492 Z m -30.187 0.656 l 1.313 -0.492 h 0.164 v 0.328 a 0.58 0.58 0 0 0 -0.492 0.164 a 0.58 0.58 0 0 0 -0.164 0.492 h -0.492 l -0.328 -0.328 Z m 9.188 0.82 h 0.492 l 0.82 0.82 h 0.164 l 0.164 -0.164 l 0.164 0.492 l -0.492 0.328 h -0.164 l -1.148 -0.164 Z m -14.93 0.984 l 2.3 1.148 v 0.164 h -0.328 Q 285.51 -62.385 285.51 -63 Z m 11.484 0.984 l 1.148 -0.328 H 300.6 q 0 0.492 -1.8 0.492 h -1.641 l -0.164 0.164 Z m 15.586 3.938 a 17.242 17.242 0 0 0 -10.336 2.953 q -1.518 1.641 -2.461 1.641 q -3.117 1.354 -5.414 6.4 q -3.281 9.475 -3.281 13.945 q 0 1.8 0.82 1.8 v 0.984 a 20.939 20.939 0 0 0 2.133 9.188 q 4.061 8.039 8.859 8.039 v 0.328 l -0.984 -0.328 l -0.328 0.328 v 0.328 a 27.5 27.5 0 0 0 10.664 2.625 h 2.133 a 4.526 4.526 0 0 0 3.281 -1.148 l 1.477 0.328 h 0.984 a 6.94 6.94 0 0 0 4.266 -2.461 v -0.328 h -0.164 l -0.82 0.164 v -0.328 l 0.82 -0.164 h 1.477 l 0.492 -0.492 v -0.328 l -1.969 0.164 h -0.164 a 1.574 1.574 0 0 0 -0.492 -1.148 h 1.148 l 3.117 -1.477 v -0.328 l -2.3 -0.656 v -0.164 l 0.328 -0.328 h 0.328 l 1.313 0.82 l 0.656 -0.328 q 0 -1.025 -1.312 -1.148 h -0.328 l -2.3 0.328 q -1.641 -0.164 -1.641 -1.312 h 2.789 v -0.492 L 325.213 -21 l 0.984 0.164 q 2.953 2.133 3.445 2.133 v 0.164 q -1.312 0.164 -1.312 0.492 v 0.164 q 0 0.246 1.313 0.656 h 0.164 q 2.953 -4.758 2.953 -8.039 v -0.164 a 4.213 4.213 0 0 0 -3.445 -4.43 v 0.328 a 18.97 18.97 0 0 0 -1.641 3.938 v 0.492 h -0.82 a 2.687 2.687 0 0 0 -1.641 0.984 l -0.984 -0.164 l -2.461 2.953 v 0.82 l -0.656 0.164 l 0.164 1.148 l -0.328 0.328 a 1.574 1.574 0 0 0 -0.492 -1.148 l -0.492 0.492 q -1.6 0.656 -1.641 0.984 v 0.328 q 4.758 0.7 4.758 1.313 v 0.164 h -0.164 l -3.773 1.148 l -1.8 -0.492 v -0.164 h 0.164 l 0.82 0.328 l 0.328 -0.328 q 0 -0.7 1.477 -1.148 q 0 -0.533 -3.937 -0.656 a 7.366 7.366 0 0 0 -4.43 1.148 l -0.328 -0.328 h -1.477 l -0.328 -0.328 q 1.313 0 1.313 -0.328 v -0.164 l -1.312 -0.164 l -1.312 0.492 l -0.492 -0.984 q -3.4 -2.092 -3.609 -3.281 l -0.82 0.164 h -0.328 A 1.479 1.479 0 0 1 301.6 -22.8 a 1.082 1.082 0 0 0 1.148 -0.656 v -0.492 l -1.477 -2.953 l 0.164 -1.148 h -0.656 a 3.671 3.671 0 0 1 -1.8 0.984 H 298.8 v -0.164 l 0.328 -0.984 h 1.8 l 0.164 -0.164 l -0.328 -0.82 l 0.328 -0.82 v -0.164 l -0.164 -0.164 q -0.82 0 -0.82 -0.328 q 0.984 0 0.984 -0.492 v -0.33 a 7.752 7.752 0 0 0 -0.656 -2.789 q -1.641 -0.451 -1.641 -0.82 v -0.164 h 0.164 l 0.164 0.164 h 0.492 a 1.342 1.342 0 0 1 1.148 -0.492 v -1.312 a 9.1 9.1 0 0 1 0.492 -2.789 q 2.789 -6.07 2.789 -7.711 v -0.164 h 0.82 q 0.943 0 2.625 -1.8 q 1.969 0 1.969 -2.3 l -0.328 -1.148 h 0.164 l 0.164 -0.164 h 0.328 v 0.164 l -0.164 0.164 v 0.164 q 0.82 1.969 1.148 1.969 h 0.492 l 0.328 -0.328 L 311.1 -52.5 l 0.328 -0.328 h 0.492 l 0.492 0.492 v 0.164 l -0.164 1.148 h 0.164 l 0.164 0.164 h 0.492 a 2.388 2.388 0 0 1 1.477 -0.82 v 0.82 l 0.328 0.328 h 0.82 a 7.089 7.089 0 0 1 3.445 1.148 a 4.345 4.345 0 0 0 3.773 1.641 v 0.164 l -0.164 0.164 v 0.82 q 0 1.887 2.461 3.609 l -0.164 0.82 v 0.656 a 2.325 2.325 0 0 0 2.133 1.148 h 1.313 q 4.594 -0.656 4.594 -2.953 v -0.656 q 0 -0.82 -1.8 -2.953 l 0.492 -1.641 l -1.641 -0.656 l 0.492 -0.656 v -0.164 q 0 -1.518 -3.117 -3.281 q -0.287 1.641 -0.656 1.641 h -0.492 v -0.164 l 0.656 -2.3 a 20.478 20.478 0 0 0 -12.8 -4.1 Z m -2.3 3.609 l 1.148 0.328 q -0.082 0.492 -1.148 0.984 Z m -12.633 6.4 l 0.82 -0.164 h 0.164 l 1.148 0.82 h 0.82 l 0.164 -0.164 q 0 0.533 -1.641 0.984 q -1.477 0 -1.477 -1.312 Z m 30.023 0.164 l 0.984 -0.328 h 0.164 l 0.164 0.164 q 0.451 1.641 1.477 1.641 l -0.656 0.492 l -0.984 -0.164 h -0.656 l -0.492 -1.641 Z M 323.4 -46.752 l 1.148 -0.328 q 1.148 0.369 1.148 0.656 v 0.656 q -1.148 0.123 -1.148 0.656 h -0.164 l -0.164 -0.164 l 0.164 -0.492 v -0.164 l -0.82 -0.656 Z m 5.086 1.477 a 1.89 1.89 0 0 0 1.148 0.492 h 0.328 l 1.641 -0.492 v 1.148 l -1.641 0.164 a 2.316 2.316 0 0 1 -1.641 -0.656 Z M 293.713 -42.82 q 0 -1.025 1.8 -1.477 v 0.164 h 0.328 v 0.82 L 297.322 -42 q 0 0.656 1.8 0.656 v 0.164 q -1.969 0.7 -1.969 2.133 h -3.117 v -0.164 l 0.82 -1.312 l -0.328 -0.656 v -0.164 q 1.477 -0.41 1.477 -0.82 v -0.164 l -0.328 -0.328 a 2 2 0 0 0 -1.312 0.656 h -0.328 Z m 4.1 4.594 q 0 -1.066 1.313 -1.477 v 0.164 h 0.328 v 0.164 a 1.611 1.611 0 0 0 -0.82 1.477 l -0.82 -0.164 Z m -2.953 0.656 h 0.328 a 4.482 4.482 0 0 1 2.133 1.148 l -0.492 0.164 a 1.082 1.082 0 0 0 -1.148 -0.656 h -0.328 l -0.164 0.164 Z m -1.148 3.609 q 0 -0.574 3.773 -0.984 l -0.328 1.313 l -0.82 -0.328 l -3.281 0.328 q -0.492 0 -0.492 -0.328 v -0.164 h 0.328 Z m -1.148 2.133 q 0 -0.328 0.492 -0.328 l 0.164 -0.164 q 2.01 0 2.3 -0.328 v 0.328 a 4.781 4.781 0 0 1 -1.969 0.656 h -0.164 Z m 1.313 3.938 l 0.656 -0.492 q 2.912 0 4.43 3.117 H 298.8 a 3.671 3.671 0 0 1 -1.8 -0.984 a 3.363 3.363 0 0 1 -2.461 1.313 l -0.82 -0.82 v -0.164 l 0.984 0.492 h 0.164 l 0.328 -0.328 v -0.328 q -1.318 -1.109 -1.318 -1.807 Z m 31.336 0.328 l -0.492 0.492 v 0.164 l 0.492 0.492 h 0.164 l 1.477 -0.328 v -0.164 l -0.984 -0.656 Z M 293.385 -25.1 l 0.656 0.164 q 0 0.287 -0.82 0.492 v -0.492 Z m 2.3 0.82 h 0.328 l 0.984 0.492 v 0.164 l -0.164 0.164 v 0.492 q 0 0.492 2.461 0.492 v 0.164 A 11.156 11.156 0 0 0 295.518 -21 h -0.164 l 0.328 -0.492 l -0.82 -0.82 v -0.328 q 0.984 0 0.984 -0.328 v -0.164 Z m 7.875 4.758 q 0.615 0 1.148 2.3 l 2.3 -0.164 l 1.148 0.164 v 0.164 L 307 -16.734 l -3.773 -0.492 h -0.164 v -0.164 Z m 8.367 3.938 h 0.492 a 4.323 4.323 0 0 0 2.461 1.313 q -0.984 1.8 -1.8 1.8 a 5.335 5.335 0 0 0 -1.148 -2.789 Z m 5.25 2.3 q 0 -1.148 1.8 -1.477 h 0.164 q 0 1.189 -1.641 1.641 h -0.164 Z m -1.8 0.656 l 1.641 0.164 l 0.656 -0.164 h 0.164 a 0.89 0.89 0 0 1 -0.656 0.656 l -1.8 -0.164 h -0.164 v -0.328 Z m 1.641 4.922 l -0.656 0.164 q -17.227 0.328 -17.227 0.984 a 5.528 5.528 0 0 0 -3.117 -0.984 l -7.875 0.984 a 15.359 15.359 0 0 1 -4.1 -0.984 v 0.328 l 0.164 0.164 a 20.734 20.734 0 0 0 -0.984 5.414 v 0.492 A 1.127 1.127 0 0 0 283.869 0 h 2.789 l 36.258 -0.492 l 4.1 0.328 h 0.328 l 0.492 -0.492 l 1.313 0.492 h 0.82 q 0.656 -0.328 0.656 -0.82 a 3.239 3.239 0 0 0 2.3 0.984 h 1.313 l 5.578 -0.492 h 0.492 q 0.533 0 0.656 -2.133 q 0 -1.8 -0.492 -1.8 l 0.492 -1.312 L 340.8 -7.219 h -0.328 l -2.3 -0.328 q -0.656 0.082 -0.656 0.492 v 0.492 l 0.164 0.164 l 1.313 -0.328 h 0.164 l -0.492 1.148 l 0.656 0.984 v 0.164 l -0.164 -0.164 Q 336.2 -5 336.2 -5.415 v -0.164 l 0.164 -0.164 l 1.148 0.164 h 0.492 l 0.164 -0.164 q 0 -0.246 -1.312 -0.656 l 0.164 -0.984 v -0.164 l -0.164 -0.164 q -1.641 0 -1.641 1.477 a 7.292 7.292 0 0 0 -4.266 -1.312 h -0.492 a 2.091 2.091 0 0 0 -1.969 0.984 a 5.216 5.216 0 0 0 -3.281 -1.148 h -0.164 l -5.578 0.328 Z M 305.525 -4.594 q 0 -1.107 1.477 -1.477 l 0.328 0.984 a 1.89 1.89 0 0 1 -1.148 0.492 Z m 18.047 0.492 l 1.477 0.492 v 0.164 a 2.446 2.446 0 0 1 -2.133 1.313 v -0.328 l 0.82 -0.984 l -0.328 -0.328 v -0.164 Z m 10.172 2.133 q 0.123 -0.82 0.492 -0.82 h 0.656 q 0.492 0.123 0.82 1.148 l -0.328 0.328 h -0.328 a 2 2 0 0 1 -1.312 -0.656 Z m -25.1 -0.328 v -0.164 l 2.625 0.492 h 0.328 a 2.29 2.29 0 0 0 1.477 -0.492 V -1.8 q -2.789 0.328 -2.789 0.82 q -1.027 0 -1.642 -1.32 Z M 328.535 -68.25 l -0.328 1.641 h -0.328 l -0.164 -0.164 q -0.164 -1.312 -0.492 -1.312 h -0.492 l -0.164 0.164 A 8.3 8.3 0 0 0 326.9 -65.3 l 1.8 -0.492 l 0.656 0.656 v 0.164 l -1.641 0.328 l -0.984 -0.164 v 3.773 l 10.828 0.164 q 2.42 -0.164 2.789 -1.312 q 0.328 0 0.984 1.313 l 1.477 -0.164 l 24.609 0.164 a 89.035 89.035 0 0 0 10.5 -0.82 l 0.492 0.82 l 3.117 -0.164 q 0.82 0 0.82 -1.8 v -1.148 q -1.107 -4.43 -3.773 -4.43 h -1.148 a 6.043 6.043 0 0 0 -2.625 0.984 q 0 -0.615 -2.625 -0.82 l -11.648 0.164 Q 359 -66.111 358.39 -66.111 l 0.492 -1.969 h -8.7 Z m 35.273 4.43 q 0.2 -0.984 0.492 -0.984 q 0.9 1.148 1.641 1.148 v 0.328 l -0.164 0.164 a 3.978 3.978 0 0 1 -1.968 -0.656 Z m -4.1 0.492 l 1.8 0.656 l 1.313 -0.164 l 0.328 0.984 l -0.328 0.328 h -0.164 q 0 -0.984 -0.328 -0.984 l -1.8 0.328 h -0.82 Z M 348.059 -58.57 a 45.219 45.219 0 0 0 -6.4 0.328 q -5.209 0 -5.906 5.906 v 0.984 a 4.512 4.512 0 0 0 0.82 2.3 a 2.519 2.519 0 0 0 -0.82 1.969 q 0.246 2.625 0.656 2.625 q 1.148 -0.574 1.148 -0.82 q 0 -0.7 -1.148 -1.641 v -0.492 a 2.894 2.894 0 0 0 1.641 -0.492 h 0.164 q 0 1.641 1.477 1.641 l -1.8 1.313 v 0.164 l 0.328 0.492 l 0.492 -0.328 h 0.164 l 0.328 1.148 v 0.164 l -3.117 -0.656 l -0.328 0.82 l 0.328 10.336 l -0.164 1.148 q 1.477 0.205 1.477 0.492 q -1.477 0.369 -1.477 0.656 v 5.086 l 0.328 2.3 q -0.328 0 -0.492 1.641 l 0.328 0.984 l 0.656 -0.164 q 1.477 0.369 1.477 0.82 v 0.492 l -0.492 0.164 l -1.477 -0.492 l -0.328 0.328 l -0.164 2.461 q 0.164 1.148 0.492 1.148 a 3.817 3.817 0 0 1 2.133 -1.477 l 0.492 0.164 v 0.164 l -2.953 1.477 q 0 3.076 1.969 4.1 L 339.2 -12.3 h 0.164 v 0.492 q -1.148 0.2 -1.148 0.656 t 1.313 0.656 l 1.148 -0.328 a 6.255 6.255 0 0 1 3.773 -1.641 a 2.573 2.573 0 0 1 0.984 -2.133 q 0 -0.451 -1.477 -0.492 l -1.641 -1.8 h -0.164 q 0 0.533 -0.82 0.82 v -0.164 l -0.164 -0.164 a 6.568 6.568 0 0 1 2.625 -1.148 l -0.164 -0.656 q 0.492 -1.477 1.148 -1.477 l 0.656 0.164 h 0.164 v -0.82 l -0.328 -8.039 l 0.328 -2.133 q 0 -0.984 2.789 -0.984 a 11.337 11.337 0 0 1 4.922 1.477 q 4.881 3.281 5.578 3.281 v 0.492 h -0.164 l -0.984 -0.164 h -0.164 l -0.164 0.164 v 0.328 q 4.266 5.742 4.266 6.234 l 2.133 -0.656 h 0.492 q -1.641 0.82 -1.641 1.969 v 0.328 a 2.834 2.834 0 0 0 2.3 2.953 l -0.164 0.656 q 0 0.984 2.133 2.133 l -0.328 0.492 q 0 0.246 1.313 0.82 l 1.148 -1.477 h 0.82 l 0.328 1.148 l 1.8 -0.82 q 2.789 -0.41 2.789 -1.641 v -0.164 a 5.856 5.856 0 0 0 -1.641 -3.281 v -0.164 h 0.492 v -0.492 l -0.328 -0.492 q -2.3 -0.369 -2.3 -0.82 l 0.984 -0.984 v -0.492 l -0.164 -0.492 q -1.682 -4.43 -9.023 -10.992 q 0.328 -1.312 0.656 -1.312 h 0.328 l 0.492 0.656 q 1.518 0 2.953 -3.445 l 1.148 1.477 h 0.164 q 0.287 0 0.492 -0.82 a 11.26 11.26 0 0 0 4.758 -9.68 V -46.43 q 0 -5.045 -5.414 -9.023 Q 365.2 -58.57 348.059 -58.57 Z m 13.781 4.43 l 2.133 0.82 a 0.89 0.89 0 0 1 -0.656 0.656 a 3.746 3.746 0 0 0 -1.8 -0.82 v -0.164 Z m 1.641 2.953 q 3.24 -0.656 3.938 -1.312 l 0.984 2.625 a 5.946 5.946 0 0 0 -2.133 0.82 q 0 -1.354 -2.789 -1.969 Z m -18.047 0.656 q 5.578 -0.615 5.578 -1.477 h 0.164 v 0.656 q 9.639 1.025 11.648 2.3 q 0 1.559 1.969 2.461 q -0.984 1.8 -1.477 6.727 v 0.164 l -0.82 -0.164 h -0.164 l -2.133 0.984 v 0.492 h 1.313 q -0.082 0.328 -0.82 0.656 l -2.625 -0.656 l -0.328 0.328 v 0.164 l 0.492 0.492 h 0.164 l -0.164 0.492 v 0.164 h 1.8 l 0.492 0.492 v 0.164 l -1.477 -0.328 h -0.492 l -0.328 0.328 v 0.328 q 0.082 0.328 0.82 0.656 a 3.009 3.009 0 0 0 1.641 -0.82 v 0.492 q 0 1.148 1.641 1.148 a 1.425 1.425 0 0 1 -1.312 0.82 l -2.461 -0.164 q -0.246 -1.969 -1.148 -1.969 q -0.492 0 -0.492 0.328 v 1.641 h -0.656 v 0.492 l 0.328 0.328 l 0.82 -0.656 h 0.328 q -0.123 0.984 -1.312 0.984 h -0.492 q -0.656 0 -0.82 -2.953 v -0.328 h 0.164 l 0.164 0.164 h 0.492 a 2.273 2.273 0 0 0 1.8 -1.148 a 4.412 4.412 0 0 0 -3.445 -1.312 l -8.531 0.164 H 345.6 a 12.325 12.325 0 0 0 -0.984 -3.609 q 0 -0.287 0.82 -0.492 l -0.328 -0.984 l 0.164 -1.8 q 0 -0.656 -0.492 -0.656 a 11.761 11.761 0 0 0 0.82 -4.266 Z m 14.766 -0.328 l 0.492 -0.492 h 0.656 q 1.23 0 1.313 0.492 l -0.492 0.164 Z m -20.18 2.953 q 0.7 -1.969 2.133 -1.969 h 0.328 A 4.59 4.59 0 0 0 341 -46.758 q -0.611 -0.164 -0.98 -1.148 Z m -1.148 5.742 q 0 -0.615 2.625 -1.312 h 0.328 a 1.8 1.8 0 0 0 0.656 1.148 l -3.281 0.164 h -0.164 l -0.164 0.164 Z m 30.352 2.625 a 4.579 4.579 0 0 1 2.953 -1.477 h 0.164 v 0.164 l -0.164 0.164 q -2.3 0.574 -2.3 1.477 v 0.164 l 0.164 0.164 h -0.164 Z m -31.008 0.164 q 0.2 -0.779 0.656 -0.82 l 1.313 0.164 l -1.477 1.477 q -0.288 0 -0.493 -0.821 Z m 2.625 10.664 h 1.313 v 0.656 l 0.328 0.984 h -0.164 l -0.164 0.164 a 3.88 3.88 0 0 1 -1.312 -1.641 Z M 336.41 -23.3 l 0.328 -0.328 h 0.164 q 0.328 0.082 0.656 0.82 l -0.328 0.328 Z m 3.609 7.383 h 0.164 a 1.384 1.384 0 0 1 0.82 1.148 q 0 0.82 -0.492 0.984 l -0.328 -0.82 l -1.641 0.492 h -0.164 v -0.656 q 1.642 0 1.642 -1.145 Z m 1.969 2.133 a 1.127 1.127 0 0 1 1.148 -0.656 h 0.328 l 0.328 0.328 v 0.82 h -0.164 Z M 370.7 -7.875 l -21 0.984 l -1.8 -0.164 v 0.328 l 1.969 1.148 l -0.328 0.328 h -0.492 l -0.984 -0.984 q -0.943 1.8 -2.133 1.8 v 0.164 l 0.656 1.148 L 345.6 -0.656 v 0.164 l 11.977 0.328 h 6.234 L 375.3 -0.492 V -0.82 h -0.328 V -0.984 l 1.313 -0.328 h 0.164 l -0.328 0.82 l 0.328 0.328 h 0.328 A 4.482 4.482 0 0 0 378.9 -1.312 h 0.328 q 0 1.148 1.641 1.148 h 0.82 l 0.328 -0.328 V -5.25 l -0.328 -0.328 a 1.89 1.89 0 0 0 -1.148 0.492 h -0.164 l -0.328 -0.328 v -0.164 l 0.164 -0.164 q 1.8 -0.451 1.8 -0.82 v -0.656 l -0.328 -0.328 h -0.656 a 2.687 2.687 0 0 1 -1.641 0.984 h -0.164 v -0.164 l 0.164 -0.164 v -0.164 q 0 -0.7 -5.906 -0.82 Z m -28.055 0.328 a 29.569 29.569 0 0 0 -7.383 1.313 V -6.4 q 0 -0.369 1.641 -0.656 v -0.328 H 326.895 l -0.328 0.328 v 0.492 l 0.328 5.086 l -0.164 0.984 V -0.33 l 0.164 0.164 l 0.656 -0.164 l 5.906 0.164 Q 335.1 -0.41 335.1 -1.148 h 0.164 A 5 5 0 0 0 338.379 0 a 10.821 10.821 0 0 0 4.758 -1.477 v 0.492 a 2.519 2.519 0 0 0 1.969 -0.82 v -0.164 l -0.164 -0.164 l -0.82 0.164 l 0.164 -1.312 v -0.328 l -1.97 -0.491 l 2.625 -3.117 l -0.328 -0.328 Z m -14.11 2.133 q 0 -0.738 1.148 -0.984 q 1.8 0.164 1.8 0.492 l -2.789 0.492 Z M 339.2 -4.266 q 0 -0.287 0.82 -0.328 h 0.164 l -0.492 1.477 q 0.164 0.82 0.82 0.82 v 0.328 l -1.148 0.164 H 339.2 v -0.82 q 0 -0.492 -1.148 -0.492 q 0 -0.287 1.148 -0.656 h 0.164 Z m 9.516 0.984 l 1.969 -0.164 q 0.82 0 0.984 0.492 A 4.409 4.409 0 0 1 349.207 -1.8 h -0.164 Z M 370.863 -68.25 l -0.328 0.328 v 2.3 l 0.164 1.477 L 370.535 -63 v 1.641 q 0 0.246 0.656 0.492 l 3.773 -0.164 l 1.313 0.328 l 0.328 -0.328 v -0.328 q -1.312 -0.164 -1.312 -0.492 h 2.133 l 0.328 -0.328 q 0 -0.533 -2.625 -1.148 q 0 -0.328 1.148 -0.492 q 1.969 0.328 1.969 1.477 l -0.82 1.148 v 0.164 h 3.281 l 0.164 -0.164 a 12.545 12.545 0 0 0 -1.8 -2.953 l -4.266 -0.984 h -0.164 q -0.492 1.477 -0.82 1.477 q 0 -0.984 -0.492 -0.984 h -1.8 a 2.954 2.954 0 0 0 0.656 -1.477 h 0.328 l 1.148 0.82 l 0.492 -0.328 L 373 -66.445 v -0.164 l 0.164 -0.164 l 1.8 0.328 h 0.164 q 0.287 0 0.656 -0.984 a 5.042 5.042 0 0 1 1.8 0.984 Q 380.42 -63 382.02 -63 h 0.164 l 0.328 -0.328 l -1.148 -1.148 v -0.164 l 3.773 -0.328 h 0.164 l -0.328 0.328 L 385.3 -63 l 0.984 -0.164 h 0.164 a 2.116 2.116 0 0 0 -0.656 1.313 v 0.328 l 0.328 0.492 l 0.164 -0.164 l 3.938 0.492 h 0.656 q 0.2 -1.477 0.492 -1.477 h 0.164 l 0.492 0.328 l 1.313 -0.328 v 0.164 l 0.164 0.164 q 0 0.246 -0.656 0.492 l 0.328 0.328 h 1.477 l 0.328 -0.328 V -63 l 1.148 0.328 h 0.492 a 4.73 4.73 0 0 1 2.133 -1.148 h 0.82 v -0.492 l -0.656 -0.82 V -65.3 l 1.148 -0.164 h 0.164 a 1.686 1.686 0 0 1 1.641 1.148 q -2.5 0 -6.07 3.117 v 0.164 h 0.164 l 0.164 -0.164 h 1.641 l 10.992 0.328 h 0.164 a 19.637 19.637 0 0 0 6.727 -0.984 a 3.831 3.831 0 0 0 2.953 1.148 h 1.641 l 0.328 -0.328 v -5.25 a 3.049 3.049 0 0 0 -0.492 -1.969 l -3.281 0.164 h -0.984 l -14.93 -0.328 h -0.492 a 26.092 26.092 0 0 0 -8.859 1.313 q 0 -0.9 -1.8 -1.312 h -0.82 l -0.984 0.328 l -4.1 2.133 q -1.271 -1.641 -1.641 -1.641 l -0.328 0.82 h -0.492 l 0.328 -0.656 l -1.312 -0.82 H 379.4 L 378.082 -67.1 q 0 -0.984 -3.445 -1.312 l -3.117 0.164 Z m 8.039 0.82 l 0.492 -0.164 l 1.8 0.82 q 0 1.148 0.984 1.148 v 0.164 a 1.8 1.8 0 0 0 -1.148 0.656 H 380.7 v -0.164 q -1.8 -1.68 -1.8 -2.46 Z m 9.68 0.492 l 0.82 -0.492 h 0.328 l 0.984 0.984 l -1.477 0.656 l -0.656 -0.984 Z m -0.656 0.82 l 1.148 0.328 v 0.164 l -0.492 0.164 q 0 0.328 0.492 0.328 v 0.328 h -0.656 a 1.478 1.478 0 0 1 -0.82 -0.82 Z m 26.742 1.8 q 0 -1.477 1.8 -1.8 q 0.287 0 0.492 0.82 q -0.041 0.41 -2.133 0.984 Z m -24.937 -0.164 a 1.69 1.69 0 0 1 1.477 -0.984 h 0.328 a 3.97 3.97 0 0 0 -0.82 1.8 h -0.164 q 0 -0.656 -0.82 -0.656 Z m -5.742 1.8 a 1.89 1.89 0 0 0 -1.148 0.492 l 1.313 0.82 h 0.328 l 0.328 -0.328 v -0.492 l -0.492 -0.492 Z m 21.984 4.922 a 35.36 35.36 0 0 0 -5.414 0.492 v 0.328 l 0.82 0.492 l -0.328 0.328 h -0.492 a 1.758 1.758 0 0 1 -1.641 -1.312 h -0.328 q 0 0.656 -0.984 0.656 a 9.536 9.536 0 0 0 -2.789 -0.82 a 6.793 6.793 0 0 0 -3.281 0.82 a 24.866 24.866 0 0 0 -5.742 -0.82 H 383.66 q -4.184 0 -5.578 3.281 q 0.082 0.656 0.492 0.656 h 1.477 l 0.164 -0.164 q 0.984 0.574 0.984 0.984 l -0.656 0.328 l -1.8 -0.656 h -0.656 l -0.328 0.328 l 1.477 1.148 v 0.492 q -1.559 0.82 -1.641 1.313 l 0.164 9.188 v 4.1 l -0.164 1.969 l 1.148 0.492 h 0.164 q 2.994 -3.609 4.1 -3.609 V -37.9 l -0.82 -0.82 v -0.164 q 0.984 0 0.984 -0.328 a 1.214 1.214 0 0 0 -0.984 -0.656 v -0.164 h 0.164 q 1.969 0.7 1.969 2.3 v 0.492 a 2.617 2.617 0 0 1 -0.656 1.477 l -1.8 -0.656 l -0.984 0.164 q -0.943 3.117 -1.641 3.117 H 378.9 l -1.148 -0.164 v 0.164 l -0.164 0.164 v 0.984 l 0.492 2.461 l -0.328 1.8 v 0.164 l 2.3 0.328 a 19.167 19.167 0 0 0 4.43 -0.984 v -0.164 l -0.328 -0.328 a 1.963 1.963 0 0 1 0.82 -1.477 h 0.492 l 1.148 0.984 l 0.656 -0.656 v -1.477 l 0.328 -0.328 h 3.117 l 9.68 -0.328 l 3.445 0.328 v -0.164 l -0.164 -0.984 q 0 -1.23 2.133 -1.641 h 0.328 q -1.477 1.436 -1.477 2.3 v 0.164 l 0.328 0.328 h 1.8 q 4.266 0 4.266 -3.281 v -0.164 a 2.936 2.936 0 0 0 -0.656 -1.8 q -2.01 -2.3 -7.055 -2.3 a 27.712 27.712 0 0 0 -7.711 1.313 v 0.328 a 7.272 7.272 0 0 1 2.461 0.492 v 0.164 h -0.328 q -0.533 1.313 -0.82 1.313 h -0.328 l -0.164 -0.164 v -0.164 l 0.164 -0.164 v -0.328 l -1.8 -1.312 l 0.164 -0.492 v -0.164 l -1.477 0.328 a 19.469 19.469 0 0 0 -4.758 -0.984 h -0.984 l -0.164 0.164 q -0.9 2.625 -1.969 2.625 h -0.164 a 12.321 12.321 0 0 0 1.641 -4.43 a 6.637 6.637 0 0 0 -0.984 -3.281 q 1.313 0 1.313 -1.477 l -0.328 -3.937 q 0 -1.148 2.789 -1.148 l 7.547 0.492 h 0.328 a 6.747 6.747 0 0 0 3.609 -0.984 h 0.164 a 0.58 0.58 0 0 1 -0.164 0.492 a 0.58 0.58 0 0 1 -0.492 0.164 v 0.328 l 6.563 0.164 q 4.594 0 5.25 -2.953 v -0.164 q -1.559 0 -1.969 -2.625 v -0.328 h 0.328 l 0.82 0.492 l 0.328 -0.328 v -0.164 q -0.862 -1.6 -6.235 -1.809 Z m -26.086 1.8 a 2.572 2.572 0 0 1 2.133 -0.82 l 2.953 0.656 v 0.164 l -0.82 0.164 l -4.1 -0.164 Z m 17.719 -0.328 l 2.133 0.656 v 0.164 l -0.328 0.328 l -2.133 -0.492 V -55.8 Z m -5.086 2.461 l 0.82 -0.164 h 0.984 q 0.492 0 0.492 0.82 h 0.328 V -53.5 h 0.164 v 0.164 a 2.484 2.484 0 0 1 -1.969 0.984 q -0.164 -1.312 -0.82 -1.312 Z M 380.871 -50.7 l 0.984 0.164 h 0.164 l 0.164 -0.164 l 0.164 1.477 q -1.477 -0.41 -1.477 -0.82 Z m 2.3 16.242 q 0.943 0 3.609 -1.8 l 0.82 0.492 q 0 0.328 -1.312 0.492 a 1.127 1.127 0 0 0 0.656 1.148 h 1.313 v 0.328 q -0.082 0.328 -0.82 0.656 l -1.8 -0.164 h -0.164 l -0.164 0.164 l 0.328 0.82 v 0.164 L 384 -32.486 v 0.164 l -0.164 0.164 v 0.82 l -1.148 -0.492 l 0.164 -2.461 v -0.164 Z m 14.109 -0.656 l 0.492 -0.164 L 399.9 -34.13 h 0.164 q 0 1.107 -1.641 1.477 h -0.164 v -0.164 l 0.328 -1.477 q -0.2 -0.656 -1.312 -0.656 Z m -11.812 0.492 a 2.573 2.573 0 0 0 -2.133 0.984 v 0.328 h 1.313 q 0.82 0 0.984 -0.492 v -0.656 Z m 0.656 6.4 q -1.189 1.477 -4.594 1.477 h -1.641 a 5.439 5.439 0 0 1 -2.133 -0.328 v 0.164 l -0.164 0.164 v 0.82 l 0.82 0.82 a 12.91 12.91 0 0 0 -0.82 4.43 v 2.133 a 26.8 26.8 0 0 0 0.656 5.086 q 0 2.789 8.039 2.789 h 2.953 a 27.629 27.629 0 0 0 6.727 -0.82 a 57.782 57.782 0 0 0 9.352 0.984 h 2.3 q 6.234 0 6.234 -4.594 l -0.164 -0.82 q -1.6 -2.789 -8.2 -2.789 h -4.922 l -0.492 0.656 v 0.164 l -2.625 -0.328 h -0.656 q -1.271 0 -1.477 0.656 a 18.246 18.246 0 0 0 -6.562 -0.82 a 2.48 2.48 0 0 1 -2.461 -1.969 q 0.984 -0.7 0.984 -4.266 v -3.281 l -0.328 -0.328 Z m -5.578 8.367 q 0 -2.789 2.625 -2.789 q -0.656 2.789 -2.461 2.789 Z m 5.578 4.1 l 0.492 -0.164 l 1.313 0.328 q -1.477 2.461 -1.969 2.461 l -0.164 -0.164 l 0.656 -0.82 V -15.1 l -0.328 -0.492 Z m 18.211 2.461 l 0.82 -0.164 h 0.656 V -12.3 l 0.328 0.492 v 0.164 h -0.492 a 4.624 4.624 0 0 1 -1.315 -1.645 Z m 14.109 5.578 a 14.481 14.481 0 0 0 -5.086 1.641 h -0.164 q 0 -0.328 0.984 -0.492 v -0.656 l -12.141 -0.328 a 74.612 74.612 0 0 0 -9.023 0.656 v 0.328 h 0.492 v 0.328 l -0.492 0.164 A 2.333 2.333 0 0 0 391.7 -6.4 v -0.164 l 0.328 -0.492 v -0.328 l -0.164 -0.164 l -1.477 0.164 l -2.133 -0.164 q -2.789 0 -3.937 1.148 h -0.164 L 382.84 -7.547 h -0.328 q 0 1.477 -3.117 1.477 h -0.328 q -0.246 0 -0.656 -1.148 h 0.164 l -0.328 -0.328 h -7.383 l -0.328 0.328 v 4.594 q 0 0.246 1.148 0.656 a 18.833 18.833 0 0 1 4.43 -0.984 h 0.492 a 4.784 4.784 0 0 1 3.773 1.477 a 22.525 22.525 0 0 0 -4.43 -0.656 h -0.82 A 10.852 10.852 0 0 0 370.7 -0.984 v 0.328 l 8.039 0.492 l 20.836 -0.164 h 0.164 A 3.224 3.224 0 0 1 402.363 -1.8 h 0.164 v 0.328 q -1.8 0.41 -1.8 0.82 v 0.164 l 0.164 0.164 h 0.164 l 0.164 -0.164 h 1.313 l 2.625 0.328 h 0.328 a 1.08 1.08 0 0 0 1.148 -0.82 l -0.328 -0.656 V -1.8 q 0.738 -0.123 1.969 -2.461 q 1.066 0.41 1.148 0.82 v 0.164 l -0.984 0.164 v 0.328 l 0.82 0.164 h 5.25 l 1.641 -0.164 q 0 1.312 1.477 1.313 V -0.98 l -0.492 0.164 q -0.82 0 -1.969 -1.477 H 415 l -0.164 0.164 l -0.492 0.656 h -0.492 l -0.984 -0.82 q -0.328 0 -0.328 0.82 h -1.312 l -0.656 0.492 q 0 0.861 9.844 0.984 l 0.328 -0.492 v -0.5 l -0.492 -4.1 L 420.58 -6.4 a 2.51 2.51 0 0 0 -2.139 -1.315 Z m -36.422 1.8 l 1.477 -0.328 h 0.164 l 0.164 0.164 l -0.82 0.656 l 0.492 1.477 v 0.164 q -1.8 -1.107 -1.8 -2.133 Z m 16.406 2.133 q 0 -0.41 0.984 -0.492 q 0.2 -0.984 0.492 -0.984 h 0.328 q 1.641 0.123 1.641 0.984 V -4.1 H 400.23 l -1.8 0.492 Z M 385.3 -1.969 q 0 -0.574 1.8 -0.82 h 0.328 l 0.492 0.492 v 0.328 Z m 3.117 0.328 A 0.879 0.879 0 0 1 389.4 -2.3 h 1.313 v 0.164 q -0.123 0.492 -0.984 0.492 Z m 16.406 0.492 l 0.492 -0.164 h 0.328 l -0.492 0.492 Z m 26.783 -66.937 h -21.82 l -0.164 0.164 l 0.164 3.938 l -0.164 3.117 l 0.164 0.164 l 0.164 -0.164 l 7.711 0.164 l 2.625 -0.164 V -61.2 q -0.984 -0.328 -0.984 -0.656 v -0.492 q 2.461 0.533 3.117 1.641 l 1.148 -0.164 h 20.016 L 463.6 -60.7 v -0.164 l 0.164 -0.164 v -6.891 l -1.312 0.328 l -4.594 -0.492 h -0.82 a 3.318 3.318 0 0 0 -1.641 0.492 l 0.492 1.313 v 0.328 q -0.943 0 -1.969 -1.969 l -11.648 -0.164 a 6.354 6.354 0 0 0 -3.281 0.82 a 2.442 2.442 0 0 0 -1.969 -0.82 h -1.148 q -3.609 0.533 -3.609 1.313 H 432.1 q -0.164 -1.316 -0.493 -1.316 Z m -11.977 1.313 l 1.477 0.328 v 0.164 l -0.656 0.984 h -0.328 q -0.369 0 -0.492 -0.984 Z M 412.084 -64.8 l 1.477 -0.328 v 1.148 h -1.148 l -0.328 -0.328 Z m 36.258 1.477 l 1.8 -1.312 l 0.328 0.82 a 2.258 2.258 0 0 1 -1.8 0.82 Z m 4.1 0.82 l 2.133 -0.656 v 1.148 h -0.656 l -1.8 -0.328 q -0.492 0 -0.492 0.984 H 451.3 l -0.164 -0.164 l 0.328 -1.148 l 0.82 0.164 Z m -23.46 1.3 q 0.861 -1.148 1.477 -1.148 l 0.656 0.328 q 0 0.82 -1.477 0.82 Z m 16.242 3.281 l -5.086 0.164 h -2.133 l -1.969 0.164 v -0.164 h -0.492 q 0 1.436 -1.641 1.641 l -0.328 -0.82 l -3.281 1.641 h -0.164 l 0.164 -0.492 q 0 -0.41 -1.312 -1.312 l 0.328 -0.492 v -0.164 l -0.164 0.164 l -6.4 -0.164 a 15.81 15.81 0 0 0 -4.43 0.656 Q 417 -56.236 417 -53.816 v 0.656 q 0.041 0.82 0.328 0.82 q 0 2.01 5.742 2.3 h 2.133 q 5.66 0 6.727 0.82 l -0.164 16.734 a 44.68 44.68 0 0 0 0.82 7.055 a 10.194 10.194 0 0 0 -0.82 3.445 a 4.289 4.289 0 0 0 1.477 3.281 h -0.656 q -0.984 0 -0.984 1.313 v 0.984 q 0 4.717 4.922 6.07 h 0.656 a 4.589 4.589 0 0 0 3.117 -1.8 l -0.328 -0.328 h -0.82 l -2.133 0.82 h -0.164 l 0.656 -0.82 q 0 -0.369 -0.82 -0.492 v -0.164 h 0.492 l 3.609 0.328 q 0.82 0 0.82 -2.461 a 3.78 3.78 0 0 0 -0.656 -1.8 q 0.492 0 0.492 -0.328 v -1.969 l -0.164 -0.164 l -1.477 0.328 a 1.051 1.051 0 0 1 -0.984 -0.656 v -0.164 h 0.164 l 0.164 0.164 h 0.164 l 2.133 -0.656 V -49.7 l 0.164 0.164 l 3.445 -0.492 q 1.518 0 1.8 -2.3 a 11.05 11.05 0 0 0 3.938 1.313 v 0.164 q -1.271 0 -1.477 0.656 v 0.164 l 0.328 0.328 H 450.8 q 3.281 -0.082 3.281 -0.82 V -50.7 H 453.1 l -1.148 0.164 V -50.7 h -0.328 v -0.328 l 0.82 -0.164 l 2.461 0.656 a 4.951 4.951 0 0 0 1.969 -3.445 v -0.492 q 0 -3.441 -11.649 -3.441 Z m -6.234 3.281 q 0 -1.641 3.445 -2.625 q -1.477 3.938 -3.117 3.938 h -0.492 v -0.164 l 0.492 -0.164 Z m -4.922 0.164 q 0 -0.287 0.82 -0.492 l 1.8 0.492 q 0 0.82 -1.477 0.82 h -0.328 l 0.164 -0.82 Z m 16.242 1.641 a 2.8 2.8 0 0 1 1.969 -1.148 l 0.492 0.164 q -1.189 1.313 -1.8 1.313 Z m -23.461 1.8 q 0.738 -1.8 2.133 -1.8 q 0.738 0.328 0.82 0.656 v 0.328 h -0.984 a 3.213 3.213 0 0 1 -1.8 0.82 Z m 8.7 1.313 q 1.148 0 1.148 0.984 l -0.328 0.82 l 0.164 0.164 q 2.789 0.41 2.789 1.148 l -0.328 0.328 a 4.526 4.526 0 0 0 -3.281 -1.148 l 0.328 -0.492 l -0.492 -1.641 Z m -0.328 4.266 h 0.164 l 2.789 1.313 q -0.082 0.328 -0.82 0.656 l -1.8 -0.328 l 0.164 -0.82 v -0.328 q 0 -0.328 -0.492 -0.328 Z m 0.164 3.773 l 2.3 0.82 v 0.164 l -1.641 0.328 h -0.164 v -0.164 h 0.328 v -0.328 q 0 -0.492 -0.984 -0.492 v -0.164 Z m 0.656 2.461 h 0.492 l 2.789 1.313 v 0.656 l -0.164 0.164 l -1.312 -0.328 l -0.328 0.328 a 2.277 2.277 0 0 1 -1.477 -1.969 Z M 434.729 -27.9 h 0.82 q 0.943 1.313 1.313 1.313 l -0.492 0.492 a 3.978 3.978 0 0 1 -1.969 -0.656 Z m 2.625 3.445 l 1.641 0.164 l -0.328 0.656 l -1.641 -0.164 Z m -3.609 2.789 l 0.492 -0.492 h 2.789 v 0.492 q -1.969 0 -1.969 0.82 a 1.547 1.547 0 0 0 -1.317 -0.81 Z m -6.4 14.273 l -17.227 0.164 q -0.492 0 -0.492 0.328 v 1.313 a 4.8 4.8 0 0 0 0.984 2.953 q -0.984 0 -0.984 0.492 v 1.8 l 0.328 0.328 h 1.477 q 8.982 0 14.6 -0.328 l 4.43 0.328 q 0.369 -1.641 0.656 -1.641 h 0.328 v 0.164 L 431.117 -1 v 0.656 l 0.328 0.328 h 1.969 q 1.641 0 1.641 -1.148 a 4.938 4.938 0 0 0 2.3 0.984 a 1.287 1.287 0 0 0 1.313 -0.984 l 0.492 0.492 l -0.328 0.492 V 0 h 24.609 l 0.328 -0.328 v -0.984 a 1.479 1.479 0 0 0 -0.984 -1.477 l 0.82 -0.82 l -0.164 -1.641 l 0.164 -1.641 q -9.352 -0.492 -17.883 -0.492 a 55.013 55.013 0 0 0 -11.32 0.82 a 46.086 46.086 0 0 0 -7.06 -0.82 Z m 4.266 0.82 q 2.625 0.984 2.625 1.477 v 0.164 h -0.164 l -1.312 -0.492 l -0.492 0.492 q -0.451 -0.082 -0.656 -1.312 Z M 426.029 -4.43 q 0 -0.615 1.641 -1.148 h 0.164 A 3.6 3.6 0 0 1 426.686 -4.1 h -0.164 Z m -9.516 0.492 h 0.164 l 0.164 1.148 v 0.328 h -0.492 q -0.656 -0.82 -1.148 -0.82 v -0.164 h 0.164 l 0.656 0.164 q 0.493 0 0.493 -0.655 Z M 426.85 -1.8 l 0.492 -0.492 h 0.328 q 1.8 0 1.8 0.492 v 0.164 q 0 0.287 -0.82 0.492 Q 426.85 -1.436 426.85 -1.8 Z m 27.316 -66.281 l -0.164 0.164 l 0.164 1.969 v 3.773 q 0 1.189 0.492 1.313 h 3.773 a 3.969 3.969 0 0 0 2.625 -0.82 q 0.123 0.82 0.492 0.82 H 477.79 a 3.854 3.854 0 0 1 3.117 -1.312 v 0.328 q -1.969 0.205 -1.969 0.656 l 0.328 0.328 h 4.1 l 1.8 -2.461 h 0.164 l 0.164 0.656 q 0 0.328 -1.148 1.313 v 0.164 l 13.617 0.492 a 109.575 109.575 0 0 0 13.781 -0.656 l -0.492 -5.414 l 0.164 -1.148 v -0.164 l -52.664 0.164 Z m 17.063 0.984 h 0.984 q 0.287 0 0.492 0.984 q -0.451 1.148 -0.82 1.148 h -0.328 l -0.164 -0.164 l 0.164 -0.82 V -66.6 Z m 17.391 1.641 l 1.148 -0.328 v 0.164 q 2.3 0.779 2.3 1.477 q -3.445 -0.615 -3.445 -1.148 Z m -9.68 7.219 l -0.492 0.328 q 0 2.625 -1.8 2.625 h -0.164 v -0.328 q 1.313 -1.025 1.313 -1.8 v -0.164 l -0.164 -0.164 a 14.691 14.691 0 0 0 -9.023 3.117 q -8.531 7.424 -8.531 20.016 v 1.641 a 25.9 25.9 0 0 0 4.758 15.258 q 4.553 4.43 6.727 4.43 h 0.164 l -0.164 0.492 v 0.328 q 1.148 1.682 12.633 2.625 q 5.619 0 7.055 -2.461 v -0.164 h -0.82 L 490.1 -12.8 v -0.164 l 0.328 -0.492 v -0.328 l -0.164 -0.164 l 0.656 -0.164 a 20.541 20.541 0 0 1 5.086 0.82 a 5.108 5.108 0 0 0 2.461 -1.477 q 7.219 -7.014 7.219 -20.016 a 28.885 28.885 0 0 0 -1.641 -10.008 q -1.641 -0.533 -1.641 -0.984 l 0.656 -0.656 v -0.492 q -5.373 -11.32 -21.492 -11.32 Z m 2.133 1.8 h 1.313 q 0.82 0 0.984 0.492 v 0.328 a 1.082 1.082 0 0 1 -1.148 0.656 h -1.148 Z m -12.141 5.906 a 2.038 2.038 0 0 1 1.641 -1.148 h 0.492 q 0 1.148 -1.969 1.148 Z m 0.656 16.406 a 24.3 24.3 0 0 1 1.313 -7.711 q 3.076 -8.859 11.813 -8.859 h 0.164 q 8.08 0 11.484 8.039 l 0.984 -0.328 h 0.328 l -0.328 1.969 L 496 -31.992 v 0.984 l -0.328 3.117 a 0.58 0.58 0 0 0 0.164 0.492 a 0.58 0.58 0 0 0 0.492 0.164 v 0.164 q -2.789 1.271 -2.789 3.773 v 0.492 l 0.164 0.164 q -3.773 2.174 -3.773 3.938 l -0.656 -0.328 q -2.789 0.287 -2.789 1.969 q -6.521 0 -14.437 -4.758 l 0.328 -1.148 v -0.164 l -1.312 -2.789 l -5.25 1.641 h -0.164 a 5.777 5.777 0 0 1 3.773 -1.969 h 1.148 l 0.164 -0.164 A 28.971 28.971 0 0 1 469.588 -34.125 Z m 26.578 -10.828 q 0 -0.533 1.641 -0.656 l 2.3 0.328 v 0.164 l -2.3 0.82 Z m -34.945 7.875 q 0.246 -0.656 0.492 -0.656 h 0.164 q 1.271 1.148 1.8 1.148 v 0.164 l -0.164 0.164 Z m 5.086 1.313 h 0.164 l 1.313 1.148 l -0.328 0.328 h -1.8 l -0.164 -0.164 l 0.164 -0.492 q 0.651 -0.455 0.651 -0.821 Z M 493.87 -15.093 q 0 -0.41 0.984 -0.492 h 0.82 l 0.328 0.328 v 0.492 h -0.328 l -1.312 -0.328 h -0.328 l -0.164 0.164 Z m -28.22 7.71 Q 454 -7.26 454 -6.727 l 0.164 4.922 L 454 -0.328 l 0.656 0.328 l 19.031 -0.164 h 1.148 A 3.22 3.22 0 0 1 476.8 -1.476 q 0.82 0.2 0.82 0.492 q 0 0.492 -0.656 0.492 v 0.328 H 483.7 L 510.439 0 q 1.148 -0.164 1.148 -0.492 v -0.82 l -0.164 -3.609 l 0.164 -1.969 l -0.164 -0.492 l -0.164 0.164 l -13.781 -0.164 a 10.739 10.739 0 0 0 -5.906 1.313 h -0.656 l -1.148 -1.312 l -2.789 0.164 Z m 9.516 3.938 q 0 -0.41 1.641 -0.656 v 0.328 a 1.372 1.372 0 0 1 -1.312 0.82 h -0.328 Z" stroke-linecap="round" />
</g>
</svg>